<mxfile host="app.diagrams.net" agent="Mozilla/5.0 (Windows NT 10.0; Win64; x64) AppleWebKit/537.36 (KHTML, like Gecko) Chrome/135.0.0.0 Safari/537.36" version="26.3.0">
  <diagram id="6a731a19-8d31-9384-78a2-239565b7b9f0" name="Page-1">
    <mxGraphModel dx="3789" dy="1953" grid="1" gridSize="10" guides="1" tooltips="1" connect="1" arrows="1" fold="1" page="1" pageScale="1" pageWidth="1169" pageHeight="827" background="none" math="0" shadow="0">
      <root>
        <mxCell id="0" />
        <mxCell id="1" parent="0" />
        <mxCell id="2" value="start" style="shape=mxgraph.flowchart.terminator;strokeWidth=2;gradientColor=none;gradientDirection=north;fontStyle=0;html=1;" parent="1" vertex="1">
          <mxGeometry x="240" y="60" width="160" height="30" as="geometry" />
        </mxCell>
        <mxCell id="7" style="fontStyle=1;strokeColor=#003366;strokeWidth=1;html=1;entryX=0.5;entryY=0;entryDx=0;entryDy=0;" parent="1" source="2" target="t1rXLY3Hh5dRlG1rRBzR-58" edge="1">
          <mxGeometry relative="1" as="geometry">
            <mxPoint x="319.9999999999999" y="140" as="targetPoint" />
          </mxGeometry>
        </mxCell>
        <mxCell id="8" style="fontStyle=1;strokeColor=#003366;strokeWidth=1;html=1;exitX=0.5;exitY=1;exitDx=0;exitDy=0;entryX=0.5;entryY=0;entryDx=0;entryDy=0;" parent="1" source="t1rXLY3Hh5dRlG1rRBzR-58" target="t1rXLY3Hh5dRlG1rRBzR-108" edge="1">
          <mxGeometry relative="1" as="geometry">
            <mxPoint x="320.1739130434785" y="210" as="sourcePoint" />
            <mxPoint x="320" y="160" as="targetPoint" />
          </mxGeometry>
        </mxCell>
        <mxCell id="40" value="end" style="shape=mxgraph.flowchart.terminator;strokeWidth=2;gradientColor=none;gradientDirection=north;fontStyle=0;html=1;" parent="1" vertex="1">
          <mxGeometry x="740" y="220" width="120" height="30" as="geometry" />
        </mxCell>
        <mxCell id="t1rXLY3Hh5dRlG1rRBzR-58" value="print(&quot;Welcome&quot;)" style="shape=parallelogram;perimeter=parallelogramPerimeter;whiteSpace=wrap;html=1;fixedSize=1;" vertex="1" parent="1">
          <mxGeometry x="210" y="110" width="220" height="30" as="geometry" />
        </mxCell>
        <mxCell id="t1rXLY3Hh5dRlG1rRBzR-62" style="edgeStyle=orthogonalEdgeStyle;rounded=0;orthogonalLoop=1;jettySize=auto;html=1;exitX=0.5;exitY=1;exitDx=0;exitDy=0;entryX=0.5;entryY=0;entryDx=0;entryDy=0;" edge="1" parent="1" source="t1rXLY3Hh5dRlG1rRBzR-108" target="t1rXLY3Hh5dRlG1rRBzR-61">
          <mxGeometry relative="1" as="geometry">
            <mxPoint x="320" y="190" as="sourcePoint" />
          </mxGeometry>
        </mxCell>
        <mxCell id="t1rXLY3Hh5dRlG1rRBzR-67" style="edgeStyle=orthogonalEdgeStyle;rounded=0;orthogonalLoop=1;jettySize=auto;html=1;exitX=0.5;exitY=1;exitDx=0;exitDy=0;entryX=0.5;entryY=0;entryDx=0;entryDy=0;" edge="1" parent="1" source="t1rXLY3Hh5dRlG1rRBzR-61" target="t1rXLY3Hh5dRlG1rRBzR-63">
          <mxGeometry relative="1" as="geometry" />
        </mxCell>
        <mxCell id="t1rXLY3Hh5dRlG1rRBzR-74" value="No" style="edgeLabel;html=1;align=center;verticalAlign=middle;resizable=0;points=[];" vertex="1" connectable="0" parent="t1rXLY3Hh5dRlG1rRBzR-67">
          <mxGeometry x="-0.3333" relative="1" as="geometry">
            <mxPoint as="offset" />
          </mxGeometry>
        </mxCell>
        <mxCell id="t1rXLY3Hh5dRlG1rRBzR-68" style="edgeStyle=orthogonalEdgeStyle;rounded=0;orthogonalLoop=1;jettySize=auto;html=1;exitX=1;exitY=0.5;exitDx=0;exitDy=0;entryX=0;entryY=0.5;entryDx=0;entryDy=0;" edge="1" parent="1" source="t1rXLY3Hh5dRlG1rRBzR-61" target="t1rXLY3Hh5dRlG1rRBzR-65">
          <mxGeometry relative="1" as="geometry" />
        </mxCell>
        <mxCell id="t1rXLY3Hh5dRlG1rRBzR-73" value="Yes" style="edgeLabel;html=1;align=center;verticalAlign=middle;resizable=0;points=[];" vertex="1" connectable="0" parent="t1rXLY3Hh5dRlG1rRBzR-68">
          <mxGeometry x="-0.0614" relative="1" as="geometry">
            <mxPoint as="offset" />
          </mxGeometry>
        </mxCell>
        <mxCell id="t1rXLY3Hh5dRlG1rRBzR-61" value="login_choice = 2" style="rhombus;whiteSpace=wrap;html=1;" vertex="1" parent="1">
          <mxGeometry x="230" y="210" width="180" height="50" as="geometry" />
        </mxCell>
        <mxCell id="t1rXLY3Hh5dRlG1rRBzR-69" style="edgeStyle=orthogonalEdgeStyle;rounded=0;orthogonalLoop=1;jettySize=auto;html=1;exitX=1;exitY=0.5;exitDx=0;exitDy=0;entryX=0;entryY=0.5;entryDx=0;entryDy=0;" edge="1" parent="1" source="t1rXLY3Hh5dRlG1rRBzR-63" target="t1rXLY3Hh5dRlG1rRBzR-66">
          <mxGeometry relative="1" as="geometry" />
        </mxCell>
        <mxCell id="t1rXLY3Hh5dRlG1rRBzR-75" value="No" style="edgeLabel;html=1;align=center;verticalAlign=middle;resizable=0;points=[];" vertex="1" connectable="0" parent="t1rXLY3Hh5dRlG1rRBzR-69">
          <mxGeometry x="-0.1773" y="1" relative="1" as="geometry">
            <mxPoint as="offset" />
          </mxGeometry>
        </mxCell>
        <mxCell id="t1rXLY3Hh5dRlG1rRBzR-78" style="edgeStyle=orthogonalEdgeStyle;rounded=0;orthogonalLoop=1;jettySize=auto;html=1;exitX=0.5;exitY=1;exitDx=0;exitDy=0;entryX=0.5;entryY=0;entryDx=0;entryDy=0;" edge="1" parent="1" source="t1rXLY3Hh5dRlG1rRBzR-63" target="t1rXLY3Hh5dRlG1rRBzR-77">
          <mxGeometry relative="1" as="geometry" />
        </mxCell>
        <mxCell id="t1rXLY3Hh5dRlG1rRBzR-269" value="Yes" style="edgeLabel;html=1;align=center;verticalAlign=middle;resizable=0;points=[];" vertex="1" connectable="0" parent="t1rXLY3Hh5dRlG1rRBzR-78">
          <mxGeometry x="0.232" y="-3" relative="1" as="geometry">
            <mxPoint x="3" y="-11" as="offset" />
          </mxGeometry>
        </mxCell>
        <mxCell id="t1rXLY3Hh5dRlG1rRBzR-63" value="login_choice = 1" style="rhombus;whiteSpace=wrap;html=1;" vertex="1" parent="1">
          <mxGeometry x="230" y="300" width="180" height="50" as="geometry" />
        </mxCell>
        <mxCell id="t1rXLY3Hh5dRlG1rRBzR-65" value="display &quot;Goodbye&quot;" style="shape=parallelogram;perimeter=parallelogramPerimeter;whiteSpace=wrap;html=1;fixedSize=1;" vertex="1" parent="1">
          <mxGeometry x="460" y="220" width="220" height="30" as="geometry" />
        </mxCell>
        <mxCell id="t1rXLY3Hh5dRlG1rRBzR-395" style="edgeStyle=orthogonalEdgeStyle;rounded=0;orthogonalLoop=1;jettySize=auto;html=1;exitX=1;exitY=0.5;exitDx=0;exitDy=0;entryX=1;entryY=0.5;entryDx=0;entryDy=0;" edge="1" parent="1" source="t1rXLY3Hh5dRlG1rRBzR-66" target="t1rXLY3Hh5dRlG1rRBzR-108">
          <mxGeometry relative="1" as="geometry">
            <Array as="points">
              <mxPoint x="720" y="325" />
              <mxPoint x="720" y="175" />
            </Array>
          </mxGeometry>
        </mxCell>
        <mxCell id="t1rXLY3Hh5dRlG1rRBzR-66" value="display &quot;invalid option&quot;" style="shape=parallelogram;perimeter=parallelogramPerimeter;whiteSpace=wrap;html=1;fixedSize=1;" vertex="1" parent="1">
          <mxGeometry x="460" y="310" width="220" height="30" as="geometry" />
        </mxCell>
        <mxCell id="t1rXLY3Hh5dRlG1rRBzR-80" style="edgeStyle=orthogonalEdgeStyle;rounded=0;orthogonalLoop=1;jettySize=auto;html=1;exitX=0.5;exitY=1;exitDx=0;exitDy=0;entryX=0.5;entryY=0;entryDx=0;entryDy=0;" edge="1" parent="1" source="t1rXLY3Hh5dRlG1rRBzR-77" target="t1rXLY3Hh5dRlG1rRBzR-79">
          <mxGeometry relative="1" as="geometry" />
        </mxCell>
        <mxCell id="t1rXLY3Hh5dRlG1rRBzR-77" value="read user_id" style="shape=parallelogram;perimeter=parallelogramPerimeter;whiteSpace=wrap;html=1;fixedSize=1;" vertex="1" parent="1">
          <mxGeometry x="210" y="384" width="220" height="30" as="geometry" />
        </mxCell>
        <mxCell id="t1rXLY3Hh5dRlG1rRBzR-82" style="edgeStyle=orthogonalEdgeStyle;rounded=0;orthogonalLoop=1;jettySize=auto;html=1;exitX=0.5;exitY=1;exitDx=0;exitDy=0;entryX=0.5;entryY=0;entryDx=0;entryDy=0;" edge="1" parent="1" source="t1rXLY3Hh5dRlG1rRBzR-79" target="t1rXLY3Hh5dRlG1rRBzR-81">
          <mxGeometry relative="1" as="geometry" />
        </mxCell>
        <mxCell id="t1rXLY3Hh5dRlG1rRBzR-79" value="read ic" style="shape=parallelogram;perimeter=parallelogramPerimeter;whiteSpace=wrap;html=1;fixedSize=1;" vertex="1" parent="1">
          <mxGeometry x="210" y="440" width="220" height="30" as="geometry" />
        </mxCell>
        <mxCell id="t1rXLY3Hh5dRlG1rRBzR-86" style="edgeStyle=orthogonalEdgeStyle;rounded=0;orthogonalLoop=1;jettySize=auto;html=1;exitX=0;exitY=0.5;exitDx=0;exitDy=0;entryX=1;entryY=0.5;entryDx=0;entryDy=0;" edge="1" parent="1" source="t1rXLY3Hh5dRlG1rRBzR-81" target="t1rXLY3Hh5dRlG1rRBzR-83">
          <mxGeometry relative="1" as="geometry" />
        </mxCell>
        <mxCell id="t1rXLY3Hh5dRlG1rRBzR-87" value="No" style="edgeLabel;html=1;align=center;verticalAlign=middle;resizable=0;points=[];" vertex="1" connectable="0" parent="t1rXLY3Hh5dRlG1rRBzR-86">
          <mxGeometry x="0.05" y="-3" relative="1" as="geometry">
            <mxPoint as="offset" />
          </mxGeometry>
        </mxCell>
        <mxCell id="t1rXLY3Hh5dRlG1rRBzR-92" style="edgeStyle=orthogonalEdgeStyle;rounded=0;orthogonalLoop=1;jettySize=auto;html=1;exitX=0.5;exitY=1;exitDx=0;exitDy=0;entryX=0.5;entryY=0;entryDx=0;entryDy=0;" edge="1" parent="1" source="t1rXLY3Hh5dRlG1rRBzR-81" target="t1rXLY3Hh5dRlG1rRBzR-91">
          <mxGeometry relative="1" as="geometry" />
        </mxCell>
        <mxCell id="t1rXLY3Hh5dRlG1rRBzR-270" value="Yes" style="edgeLabel;html=1;align=center;verticalAlign=middle;resizable=0;points=[];" vertex="1" connectable="0" parent="t1rXLY3Hh5dRlG1rRBzR-92">
          <mxGeometry x="-0.4111" y="-1" relative="1" as="geometry">
            <mxPoint as="offset" />
          </mxGeometry>
        </mxCell>
        <mxCell id="t1rXLY3Hh5dRlG1rRBzR-81" value="ic valid" style="rhombus;whiteSpace=wrap;html=1;" vertex="1" parent="1">
          <mxGeometry x="230" y="490" width="180" height="50" as="geometry" />
        </mxCell>
        <mxCell id="t1rXLY3Hh5dRlG1rRBzR-109" style="edgeStyle=orthogonalEdgeStyle;rounded=0;orthogonalLoop=1;jettySize=auto;html=1;exitX=0.5;exitY=0;exitDx=0;exitDy=0;entryX=0;entryY=0.5;entryDx=0;entryDy=0;" edge="1" parent="1" source="t1rXLY3Hh5dRlG1rRBzR-83" target="t1rXLY3Hh5dRlG1rRBzR-108">
          <mxGeometry relative="1" as="geometry">
            <Array as="points">
              <mxPoint x="70" y="175" />
            </Array>
          </mxGeometry>
        </mxCell>
        <mxCell id="t1rXLY3Hh5dRlG1rRBzR-83" value="display &quot;invalid ic format&quot;" style="shape=parallelogram;perimeter=parallelogramPerimeter;whiteSpace=wrap;html=1;fixedSize=1;" vertex="1" parent="1">
          <mxGeometry x="-40" y="500" width="220" height="30" as="geometry" />
        </mxCell>
        <mxCell id="t1rXLY3Hh5dRlG1rRBzR-96" style="edgeStyle=orthogonalEdgeStyle;rounded=0;orthogonalLoop=1;jettySize=auto;html=1;exitX=0.5;exitY=1;exitDx=0;exitDy=0;entryX=0.5;entryY=0;entryDx=0;entryDy=0;" edge="1" parent="1" source="t1rXLY3Hh5dRlG1rRBzR-89" target="t1rXLY3Hh5dRlG1rRBzR-90">
          <mxGeometry relative="1" as="geometry" />
        </mxCell>
        <mxCell id="t1rXLY3Hh5dRlG1rRBzR-103" value="No" style="edgeLabel;html=1;align=center;verticalAlign=middle;resizable=0;points=[];" vertex="1" connectable="0" parent="t1rXLY3Hh5dRlG1rRBzR-96">
          <mxGeometry x="-0.087" y="-1" relative="1" as="geometry">
            <mxPoint as="offset" />
          </mxGeometry>
        </mxCell>
        <mxCell id="t1rXLY3Hh5dRlG1rRBzR-101" style="edgeStyle=orthogonalEdgeStyle;rounded=0;orthogonalLoop=1;jettySize=auto;html=1;exitX=0;exitY=0.5;exitDx=0;exitDy=0;entryX=1;entryY=0.5;entryDx=0;entryDy=0;" edge="1" parent="1" source="t1rXLY3Hh5dRlG1rRBzR-89" target="t1rXLY3Hh5dRlG1rRBzR-99">
          <mxGeometry relative="1" as="geometry" />
        </mxCell>
        <mxCell id="t1rXLY3Hh5dRlG1rRBzR-105" value="Yes" style="edgeLabel;html=1;align=center;verticalAlign=middle;resizable=0;points=[];" vertex="1" connectable="0" parent="t1rXLY3Hh5dRlG1rRBzR-101">
          <mxGeometry x="-0.4232" y="-2" relative="1" as="geometry">
            <mxPoint as="offset" />
          </mxGeometry>
        </mxCell>
        <mxCell id="t1rXLY3Hh5dRlG1rRBzR-89" value="existing user_id" style="rhombus;whiteSpace=wrap;html=1;" vertex="1" parent="1">
          <mxGeometry x="230" y="610" width="180" height="50" as="geometry" />
        </mxCell>
        <mxCell id="t1rXLY3Hh5dRlG1rRBzR-97" style="edgeStyle=orthogonalEdgeStyle;rounded=0;orthogonalLoop=1;jettySize=auto;html=1;exitX=0.5;exitY=1;exitDx=0;exitDy=0;entryX=0.5;entryY=0;entryDx=0;entryDy=0;" edge="1" parent="1" source="t1rXLY3Hh5dRlG1rRBzR-90" target="t1rXLY3Hh5dRlG1rRBzR-116">
          <mxGeometry relative="1" as="geometry">
            <mxPoint x="320.1739130434785" y="760" as="targetPoint" />
          </mxGeometry>
        </mxCell>
        <mxCell id="t1rXLY3Hh5dRlG1rRBzR-104" value="No" style="edgeLabel;html=1;align=center;verticalAlign=middle;resizable=0;points=[];" vertex="1" connectable="0" parent="t1rXLY3Hh5dRlG1rRBzR-97">
          <mxGeometry x="-0.0739" y="-4" relative="1" as="geometry">
            <mxPoint as="offset" />
          </mxGeometry>
        </mxCell>
        <mxCell id="t1rXLY3Hh5dRlG1rRBzR-90" value="existing ic" style="rhombus;whiteSpace=wrap;html=1;" vertex="1" parent="1">
          <mxGeometry x="230" y="690" width="180" height="50" as="geometry" />
        </mxCell>
        <mxCell id="t1rXLY3Hh5dRlG1rRBzR-93" style="edgeStyle=orthogonalEdgeStyle;rounded=0;orthogonalLoop=1;jettySize=auto;html=1;exitX=0.5;exitY=1;exitDx=0;exitDy=0;entryX=0.5;entryY=0;entryDx=0;entryDy=0;" edge="1" parent="1" source="t1rXLY3Hh5dRlG1rRBzR-91" target="t1rXLY3Hh5dRlG1rRBzR-89">
          <mxGeometry relative="1" as="geometry" />
        </mxCell>
        <mxCell id="t1rXLY3Hh5dRlG1rRBzR-91" value="read csv records" style="rounded=0;whiteSpace=wrap;html=1;" vertex="1" parent="1">
          <mxGeometry x="210" y="560" width="220" height="30" as="geometry" />
        </mxCell>
        <mxCell id="t1rXLY3Hh5dRlG1rRBzR-95" style="edgeStyle=orthogonalEdgeStyle;rounded=0;orthogonalLoop=1;jettySize=auto;html=1;exitX=0;exitY=0.5;exitDx=0;exitDy=0;exitPerimeter=0;entryX=1;entryY=0.5;entryDx=0;entryDy=0;" edge="1" parent="1" source="t1rXLY3Hh5dRlG1rRBzR-94" target="t1rXLY3Hh5dRlG1rRBzR-91">
          <mxGeometry relative="1" as="geometry" />
        </mxCell>
        <mxCell id="t1rXLY3Hh5dRlG1rRBzR-94" value="CSV" style="shape=cylinder3;whiteSpace=wrap;html=1;boundedLbl=1;backgroundOutline=1;size=15;" vertex="1" parent="1">
          <mxGeometry x="520" y="511.25" width="130" height="127.5" as="geometry" />
        </mxCell>
        <mxCell id="t1rXLY3Hh5dRlG1rRBzR-111" style="edgeStyle=orthogonalEdgeStyle;rounded=0;orthogonalLoop=1;jettySize=auto;html=1;exitX=0;exitY=0.5;exitDx=0;exitDy=0;entryX=1;entryY=0.5;entryDx=0;entryDy=0;" edge="1" parent="1" source="t1rXLY3Hh5dRlG1rRBzR-99" target="t1rXLY3Hh5dRlG1rRBzR-110">
          <mxGeometry relative="1" as="geometry" />
        </mxCell>
        <mxCell id="t1rXLY3Hh5dRlG1rRBzR-114" value="No" style="edgeLabel;html=1;align=center;verticalAlign=middle;resizable=0;points=[];" vertex="1" connectable="0" parent="t1rXLY3Hh5dRlG1rRBzR-111">
          <mxGeometry x="0.1357" y="-1" relative="1" as="geometry">
            <mxPoint as="offset" />
          </mxGeometry>
        </mxCell>
        <mxCell id="t1rXLY3Hh5dRlG1rRBzR-119" style="edgeStyle=orthogonalEdgeStyle;rounded=0;orthogonalLoop=1;jettySize=auto;html=1;exitX=0.5;exitY=1;exitDx=0;exitDy=0;entryX=0.25;entryY=0;entryDx=0;entryDy=0;" edge="1" parent="1" source="t1rXLY3Hh5dRlG1rRBzR-99">
          <mxGeometry relative="1" as="geometry">
            <mxPoint x="85.00000000000023" y="660" as="sourcePoint" />
            <mxPoint x="-9.999999999999773" y="770" as="targetPoint" />
            <Array as="points">
              <mxPoint x="100" y="680" />
              <mxPoint x="-10" y="680" />
            </Array>
          </mxGeometry>
        </mxCell>
        <mxCell id="t1rXLY3Hh5dRlG1rRBzR-125" value="Yes" style="edgeLabel;html=1;align=center;verticalAlign=middle;resizable=0;points=[];" vertex="1" connectable="0" parent="t1rXLY3Hh5dRlG1rRBzR-119">
          <mxGeometry x="-0.1198" y="3" relative="1" as="geometry">
            <mxPoint as="offset" />
          </mxGeometry>
        </mxCell>
        <mxCell id="t1rXLY3Hh5dRlG1rRBzR-99" value="matching ic" style="rhombus;whiteSpace=wrap;html=1;" vertex="1" parent="1">
          <mxGeometry x="10" y="610" width="180" height="50" as="geometry" />
        </mxCell>
        <mxCell id="t1rXLY3Hh5dRlG1rRBzR-112" style="edgeStyle=orthogonalEdgeStyle;rounded=0;orthogonalLoop=1;jettySize=auto;html=1;exitX=0;exitY=0.5;exitDx=0;exitDy=0;entryX=0.75;entryY=1;entryDx=0;entryDy=0;" edge="1" parent="1" source="t1rXLY3Hh5dRlG1rRBzR-100" target="t1rXLY3Hh5dRlG1rRBzR-110">
          <mxGeometry relative="1" as="geometry" />
        </mxCell>
        <mxCell id="t1rXLY3Hh5dRlG1rRBzR-115" value="No" style="edgeLabel;html=1;align=center;verticalAlign=middle;resizable=0;points=[];" vertex="1" connectable="0" parent="t1rXLY3Hh5dRlG1rRBzR-112">
          <mxGeometry x="-0.4876" y="-5" relative="1" as="geometry">
            <mxPoint x="-37" y="5" as="offset" />
          </mxGeometry>
        </mxCell>
        <mxCell id="t1rXLY3Hh5dRlG1rRBzR-100" value="matching user_id" style="rhombus;whiteSpace=wrap;html=1;" vertex="1" parent="1">
          <mxGeometry x="10" y="690" width="180" height="50" as="geometry" />
        </mxCell>
        <mxCell id="t1rXLY3Hh5dRlG1rRBzR-102" style="edgeStyle=orthogonalEdgeStyle;rounded=0;orthogonalLoop=1;jettySize=auto;html=1;exitX=0;exitY=0.5;exitDx=0;exitDy=0;entryX=0.968;entryY=0.49;entryDx=0;entryDy=0;entryPerimeter=0;" edge="1" parent="1" source="t1rXLY3Hh5dRlG1rRBzR-90" target="t1rXLY3Hh5dRlG1rRBzR-100">
          <mxGeometry relative="1" as="geometry" />
        </mxCell>
        <mxCell id="t1rXLY3Hh5dRlG1rRBzR-106" value="Yes" style="edgeLabel;html=1;align=center;verticalAlign=middle;resizable=0;points=[];" vertex="1" connectable="0" parent="t1rXLY3Hh5dRlG1rRBzR-102">
          <mxGeometry x="-0.1132" y="-1" relative="1" as="geometry">
            <mxPoint x="1" as="offset" />
          </mxGeometry>
        </mxCell>
        <mxCell id="t1rXLY3Hh5dRlG1rRBzR-108" value="read login_choice" style="shape=parallelogram;perimeter=parallelogramPerimeter;whiteSpace=wrap;html=1;fixedSize=1;" vertex="1" parent="1">
          <mxGeometry x="210" y="160" width="220" height="30" as="geometry" />
        </mxCell>
        <mxCell id="t1rXLY3Hh5dRlG1rRBzR-113" style="edgeStyle=orthogonalEdgeStyle;rounded=0;orthogonalLoop=1;jettySize=auto;html=1;exitX=0.5;exitY=0;exitDx=0;exitDy=0;entryX=0;entryY=0.25;entryDx=0;entryDy=0;" edge="1" parent="1" source="t1rXLY3Hh5dRlG1rRBzR-110" target="t1rXLY3Hh5dRlG1rRBzR-108">
          <mxGeometry relative="1" as="geometry">
            <Array as="points">
              <mxPoint x="-150" y="168" />
            </Array>
          </mxGeometry>
        </mxCell>
        <mxCell id="t1rXLY3Hh5dRlG1rRBzR-110" value="display &quot;do not match&quot;" style="shape=parallelogram;perimeter=parallelogramPerimeter;whiteSpace=wrap;html=1;fixedSize=1;" vertex="1" parent="1">
          <mxGeometry x="-260" y="620" width="220" height="30" as="geometry" />
        </mxCell>
        <mxCell id="t1rXLY3Hh5dRlG1rRBzR-128" style="edgeStyle=orthogonalEdgeStyle;rounded=0;orthogonalLoop=1;jettySize=auto;html=1;exitX=0.5;exitY=1;exitDx=0;exitDy=0;entryX=0.5;entryY=0;entryDx=0;entryDy=0;" edge="1" parent="1" source="t1rXLY3Hh5dRlG1rRBzR-116" target="t1rXLY3Hh5dRlG1rRBzR-127">
          <mxGeometry relative="1" as="geometry" />
        </mxCell>
        <mxCell id="t1rXLY3Hh5dRlG1rRBzR-389" style="edgeStyle=orthogonalEdgeStyle;rounded=0;orthogonalLoop=1;jettySize=auto;html=1;exitX=1;exitY=0.5;exitDx=0;exitDy=0;" edge="1" parent="1" source="t1rXLY3Hh5dRlG1rRBzR-116" target="t1rXLY3Hh5dRlG1rRBzR-94">
          <mxGeometry relative="1" as="geometry" />
        </mxCell>
        <mxCell id="t1rXLY3Hh5dRlG1rRBzR-116" value="display &quot;successfully registered&quot;" style="shape=parallelogram;perimeter=parallelogramPerimeter;whiteSpace=wrap;html=1;fixedSize=1;" vertex="1" parent="1">
          <mxGeometry x="210" y="770" width="220" height="30" as="geometry" />
        </mxCell>
        <mxCell id="t1rXLY3Hh5dRlG1rRBzR-131" style="edgeStyle=orthogonalEdgeStyle;rounded=0;orthogonalLoop=1;jettySize=auto;html=1;exitX=0.75;exitY=1;exitDx=0;exitDy=0;entryX=0;entryY=0.25;entryDx=0;entryDy=0;" edge="1" parent="1" source="t1rXLY3Hh5dRlG1rRBzR-117" target="t1rXLY3Hh5dRlG1rRBzR-127">
          <mxGeometry relative="1" as="geometry">
            <Array as="points">
              <mxPoint x="115" y="830" />
              <mxPoint x="220" y="830" />
              <mxPoint x="220" y="829" />
            </Array>
          </mxGeometry>
        </mxCell>
        <mxCell id="t1rXLY3Hh5dRlG1rRBzR-117" value="display &quot;Welcome back&quot;" style="shape=parallelogram;perimeter=parallelogramPerimeter;whiteSpace=wrap;html=1;fixedSize=1;" vertex="1" parent="1">
          <mxGeometry x="-50" y="770" width="220" height="30" as="geometry" />
        </mxCell>
        <mxCell id="t1rXLY3Hh5dRlG1rRBzR-118" style="edgeStyle=orthogonalEdgeStyle;rounded=0;orthogonalLoop=1;jettySize=auto;html=1;exitX=0.5;exitY=1;exitDx=0;exitDy=0;entryX=0.679;entryY=0.035;entryDx=0;entryDy=0;entryPerimeter=0;" edge="1" parent="1" source="t1rXLY3Hh5dRlG1rRBzR-100" target="t1rXLY3Hh5dRlG1rRBzR-117">
          <mxGeometry relative="1" as="geometry">
            <mxPoint x="100" y="760" as="targetPoint" />
          </mxGeometry>
        </mxCell>
        <mxCell id="t1rXLY3Hh5dRlG1rRBzR-126" value="Yes" style="edgeLabel;html=1;align=center;verticalAlign=middle;resizable=0;points=[];" vertex="1" connectable="0" parent="t1rXLY3Hh5dRlG1rRBzR-118">
          <mxGeometry x="-0.3596" y="4" relative="1" as="geometry">
            <mxPoint as="offset" />
          </mxGeometry>
        </mxCell>
        <mxCell id="t1rXLY3Hh5dRlG1rRBzR-133" style="edgeStyle=orthogonalEdgeStyle;rounded=0;orthogonalLoop=1;jettySize=auto;html=1;exitX=0.5;exitY=1;exitDx=0;exitDy=0;entryX=0.5;entryY=0;entryDx=0;entryDy=0;" edge="1" parent="1" source="t1rXLY3Hh5dRlG1rRBzR-127" target="t1rXLY3Hh5dRlG1rRBzR-132">
          <mxGeometry relative="1" as="geometry" />
        </mxCell>
        <mxCell id="t1rXLY3Hh5dRlG1rRBzR-127" value="read password" style="shape=parallelogram;perimeter=parallelogramPerimeter;whiteSpace=wrap;html=1;fixedSize=1;" vertex="1" parent="1">
          <mxGeometry x="210" y="820" width="220" height="30" as="geometry" />
        </mxCell>
        <mxCell id="t1rXLY3Hh5dRlG1rRBzR-151" style="edgeStyle=orthogonalEdgeStyle;rounded=0;orthogonalLoop=1;jettySize=auto;html=1;exitX=1;exitY=0.5;exitDx=0;exitDy=0;entryX=0;entryY=0.5;entryDx=0;entryDy=0;" edge="1" parent="1" source="t1rXLY3Hh5dRlG1rRBzR-132" target="t1rXLY3Hh5dRlG1rRBzR-149">
          <mxGeometry relative="1" as="geometry" />
        </mxCell>
        <mxCell id="t1rXLY3Hh5dRlG1rRBzR-154" value="No" style="edgeLabel;html=1;align=center;verticalAlign=middle;resizable=0;points=[];" vertex="1" connectable="0" parent="t1rXLY3Hh5dRlG1rRBzR-151">
          <mxGeometry x="-0.0295" y="1" relative="1" as="geometry">
            <mxPoint as="offset" />
          </mxGeometry>
        </mxCell>
        <mxCell id="t1rXLY3Hh5dRlG1rRBzR-155" style="edgeStyle=orthogonalEdgeStyle;rounded=0;orthogonalLoop=1;jettySize=auto;html=1;exitX=0.5;exitY=1;exitDx=0;exitDy=0;entryX=0.5;entryY=0;entryDx=0;entryDy=0;" edge="1" parent="1" source="t1rXLY3Hh5dRlG1rRBzR-132" target="t1rXLY3Hh5dRlG1rRBzR-152">
          <mxGeometry relative="1" as="geometry" />
        </mxCell>
        <mxCell id="t1rXLY3Hh5dRlG1rRBzR-156" value="Yes" style="edgeLabel;html=1;align=center;verticalAlign=middle;resizable=0;points=[];" vertex="1" connectable="0" parent="t1rXLY3Hh5dRlG1rRBzR-155">
          <mxGeometry x="-0.2172" y="-1" relative="1" as="geometry">
            <mxPoint as="offset" />
          </mxGeometry>
        </mxCell>
        <mxCell id="t1rXLY3Hh5dRlG1rRBzR-132" value="password correct?" style="rhombus;whiteSpace=wrap;html=1;" vertex="1" parent="1">
          <mxGeometry x="230" y="920" width="180" height="50" as="geometry" />
        </mxCell>
        <mxCell id="t1rXLY3Hh5dRlG1rRBzR-142" style="edgeStyle=orthogonalEdgeStyle;rounded=0;orthogonalLoop=1;jettySize=auto;html=1;exitX=0.5;exitY=0;exitDx=0;exitDy=0;entryX=0.5;entryY=1;entryDx=0;entryDy=0;" edge="1" parent="1" source="t1rXLY3Hh5dRlG1rRBzR-135" target="t1rXLY3Hh5dRlG1rRBzR-141">
          <mxGeometry relative="1" as="geometry" />
        </mxCell>
        <mxCell id="t1rXLY3Hh5dRlG1rRBzR-135" value="count += 1" style="rounded=0;whiteSpace=wrap;html=1;" vertex="1" parent="1">
          <mxGeometry x="475" y="880" width="150" height="30" as="geometry" />
        </mxCell>
        <mxCell id="t1rXLY3Hh5dRlG1rRBzR-143" style="edgeStyle=orthogonalEdgeStyle;rounded=0;orthogonalLoop=1;jettySize=auto;html=1;exitX=0;exitY=0.5;exitDx=0;exitDy=0;entryX=1;entryY=0.5;entryDx=0;entryDy=0;" edge="1" parent="1" source="t1rXLY3Hh5dRlG1rRBzR-141" target="t1rXLY3Hh5dRlG1rRBzR-127">
          <mxGeometry relative="1" as="geometry" />
        </mxCell>
        <mxCell id="t1rXLY3Hh5dRlG1rRBzR-144" value="Yes" style="edgeLabel;html=1;align=center;verticalAlign=middle;resizable=0;points=[];" vertex="1" connectable="0" parent="t1rXLY3Hh5dRlG1rRBzR-143">
          <mxGeometry x="0.202" y="-2" relative="1" as="geometry">
            <mxPoint as="offset" />
          </mxGeometry>
        </mxCell>
        <mxCell id="t1rXLY3Hh5dRlG1rRBzR-146" style="edgeStyle=orthogonalEdgeStyle;rounded=0;orthogonalLoop=1;jettySize=auto;html=1;exitX=1;exitY=0.5;exitDx=0;exitDy=0;entryX=0;entryY=0.5;entryDx=0;entryDy=0;" edge="1" parent="1" source="t1rXLY3Hh5dRlG1rRBzR-141" target="t1rXLY3Hh5dRlG1rRBzR-145">
          <mxGeometry relative="1" as="geometry" />
        </mxCell>
        <mxCell id="t1rXLY3Hh5dRlG1rRBzR-147" value="No" style="edgeLabel;html=1;align=center;verticalAlign=middle;resizable=0;points=[];" vertex="1" connectable="0" parent="t1rXLY3Hh5dRlG1rRBzR-146">
          <mxGeometry x="-0.7238" relative="1" as="geometry">
            <mxPoint x="33" as="offset" />
          </mxGeometry>
        </mxCell>
        <mxCell id="t1rXLY3Hh5dRlG1rRBzR-141" value="count &amp;lt;= 3" style="rhombus;whiteSpace=wrap;html=1;" vertex="1" parent="1">
          <mxGeometry x="460" y="810" width="180" height="50" as="geometry" />
        </mxCell>
        <mxCell id="t1rXLY3Hh5dRlG1rRBzR-145" value="display &quot;too many attempts, exit&quot;" style="shape=parallelogram;perimeter=parallelogramPerimeter;whiteSpace=wrap;html=1;fixedSize=1;" vertex="1" parent="1">
          <mxGeometry x="750" y="820" width="220" height="30" as="geometry" />
        </mxCell>
        <mxCell id="t1rXLY3Hh5dRlG1rRBzR-150" style="edgeStyle=orthogonalEdgeStyle;rounded=0;orthogonalLoop=1;jettySize=auto;html=1;exitX=0.5;exitY=0;exitDx=0;exitDy=0;entryX=0.5;entryY=1;entryDx=0;entryDy=0;" edge="1" parent="1" source="t1rXLY3Hh5dRlG1rRBzR-149" target="t1rXLY3Hh5dRlG1rRBzR-135">
          <mxGeometry relative="1" as="geometry" />
        </mxCell>
        <mxCell id="t1rXLY3Hh5dRlG1rRBzR-149" value="display &quot;authentication failed&quot;" style="shape=parallelogram;perimeter=parallelogramPerimeter;whiteSpace=wrap;html=1;fixedSize=1;" vertex="1" parent="1">
          <mxGeometry x="440" y="930" width="220" height="30" as="geometry" />
        </mxCell>
        <mxCell id="t1rXLY3Hh5dRlG1rRBzR-158" style="edgeStyle=orthogonalEdgeStyle;rounded=0;orthogonalLoop=1;jettySize=auto;html=1;exitX=0.5;exitY=1;exitDx=0;exitDy=0;entryX=0.5;entryY=0;entryDx=0;entryDy=0;" edge="1" parent="1" source="t1rXLY3Hh5dRlG1rRBzR-152" target="t1rXLY3Hh5dRlG1rRBzR-157">
          <mxGeometry relative="1" as="geometry" />
        </mxCell>
        <mxCell id="t1rXLY3Hh5dRlG1rRBzR-152" value="display &quot;What would you like to do?&quot;" style="shape=parallelogram;perimeter=parallelogramPerimeter;whiteSpace=wrap;html=1;fixedSize=1;" vertex="1" parent="1">
          <mxGeometry x="210" y="1000" width="220" height="30" as="geometry" />
        </mxCell>
        <mxCell id="t1rXLY3Hh5dRlG1rRBzR-160" style="edgeStyle=orthogonalEdgeStyle;rounded=0;orthogonalLoop=1;jettySize=auto;html=1;exitX=0.5;exitY=1;exitDx=0;exitDy=0;entryX=0.5;entryY=0;entryDx=0;entryDy=0;" edge="1" parent="1" source="t1rXLY3Hh5dRlG1rRBzR-157" target="t1rXLY3Hh5dRlG1rRBzR-159">
          <mxGeometry relative="1" as="geometry" />
        </mxCell>
        <mxCell id="t1rXLY3Hh5dRlG1rRBzR-157" value="read user_choice" style="shape=parallelogram;perimeter=parallelogramPerimeter;whiteSpace=wrap;html=1;fixedSize=1;" vertex="1" parent="1">
          <mxGeometry x="210" y="1050" width="220" height="30" as="geometry" />
        </mxCell>
        <mxCell id="t1rXLY3Hh5dRlG1rRBzR-162" style="edgeStyle=orthogonalEdgeStyle;rounded=0;orthogonalLoop=1;jettySize=auto;html=1;exitX=0.5;exitY=1;exitDx=0;exitDy=0;entryX=0.5;entryY=0;entryDx=0;entryDy=0;" edge="1" parent="1" source="t1rXLY3Hh5dRlG1rRBzR-159" target="t1rXLY3Hh5dRlG1rRBzR-161">
          <mxGeometry relative="1" as="geometry" />
        </mxCell>
        <mxCell id="t1rXLY3Hh5dRlG1rRBzR-167" value="No" style="edgeLabel;html=1;align=center;verticalAlign=middle;resizable=0;points=[];" vertex="1" connectable="0" parent="t1rXLY3Hh5dRlG1rRBzR-162">
          <mxGeometry x="-0.0733" y="-1" relative="1" as="geometry">
            <mxPoint as="offset" />
          </mxGeometry>
        </mxCell>
        <mxCell id="t1rXLY3Hh5dRlG1rRBzR-165" style="edgeStyle=orthogonalEdgeStyle;rounded=0;orthogonalLoop=1;jettySize=auto;html=1;exitX=1;exitY=0.5;exitDx=0;exitDy=0;entryX=0;entryY=0.5;entryDx=0;entryDy=0;" edge="1" parent="1" source="t1rXLY3Hh5dRlG1rRBzR-159" target="t1rXLY3Hh5dRlG1rRBzR-163">
          <mxGeometry relative="1" as="geometry" />
        </mxCell>
        <mxCell id="t1rXLY3Hh5dRlG1rRBzR-166" value="Yes" style="edgeLabel;html=1;align=center;verticalAlign=middle;resizable=0;points=[];" vertex="1" connectable="0" parent="t1rXLY3Hh5dRlG1rRBzR-165">
          <mxGeometry x="0.04" relative="1" as="geometry">
            <mxPoint as="offset" />
          </mxGeometry>
        </mxCell>
        <mxCell id="t1rXLY3Hh5dRlG1rRBzR-159" value="user_choice = 2" style="rhombus;whiteSpace=wrap;html=1;" vertex="1" parent="1">
          <mxGeometry x="230" y="1100" width="180" height="50" as="geometry" />
        </mxCell>
        <mxCell id="t1rXLY3Hh5dRlG1rRBzR-171" style="edgeStyle=orthogonalEdgeStyle;rounded=0;orthogonalLoop=1;jettySize=auto;html=1;exitX=0;exitY=0.5;exitDx=0;exitDy=0;entryX=1;entryY=0.5;entryDx=0;entryDy=0;" edge="1" parent="1" source="t1rXLY3Hh5dRlG1rRBzR-161" target="t1rXLY3Hh5dRlG1rRBzR-170">
          <mxGeometry relative="1" as="geometry" />
        </mxCell>
        <mxCell id="t1rXLY3Hh5dRlG1rRBzR-172" value="No" style="edgeLabel;html=1;align=center;verticalAlign=middle;resizable=0;points=[];" vertex="1" connectable="0" parent="t1rXLY3Hh5dRlG1rRBzR-171">
          <mxGeometry x="-0.04" y="1" relative="1" as="geometry">
            <mxPoint x="4" y="-1" as="offset" />
          </mxGeometry>
        </mxCell>
        <mxCell id="t1rXLY3Hh5dRlG1rRBzR-188" style="edgeStyle=orthogonalEdgeStyle;rounded=0;orthogonalLoop=1;jettySize=auto;html=1;exitX=0.5;exitY=1;exitDx=0;exitDy=0;entryX=0.5;entryY=0;entryDx=0;entryDy=0;" edge="1" parent="1" source="t1rXLY3Hh5dRlG1rRBzR-161" target="t1rXLY3Hh5dRlG1rRBzR-187">
          <mxGeometry relative="1" as="geometry" />
        </mxCell>
        <mxCell id="t1rXLY3Hh5dRlG1rRBzR-189" value="Yes" style="edgeLabel;html=1;align=center;verticalAlign=middle;resizable=0;points=[];" vertex="1" connectable="0" parent="t1rXLY3Hh5dRlG1rRBzR-188">
          <mxGeometry x="-0.1145" y="2" relative="1" as="geometry">
            <mxPoint x="-2" y="-3" as="offset" />
          </mxGeometry>
        </mxCell>
        <mxCell id="t1rXLY3Hh5dRlG1rRBzR-161" value="user_choice = 1" style="rhombus;whiteSpace=wrap;html=1;" vertex="1" parent="1">
          <mxGeometry x="230" y="1170" width="180" height="50" as="geometry" />
        </mxCell>
        <mxCell id="t1rXLY3Hh5dRlG1rRBzR-175" style="edgeStyle=orthogonalEdgeStyle;rounded=0;orthogonalLoop=1;jettySize=auto;html=1;exitX=1;exitY=0.5;exitDx=0;exitDy=0;" edge="1" parent="1" source="t1rXLY3Hh5dRlG1rRBzR-163" target="t1rXLY3Hh5dRlG1rRBzR-174">
          <mxGeometry relative="1" as="geometry" />
        </mxCell>
        <mxCell id="t1rXLY3Hh5dRlG1rRBzR-163" value="display &quot;viewing records&quot;" style="shape=parallelogram;perimeter=parallelogramPerimeter;whiteSpace=wrap;html=1;fixedSize=1;" vertex="1" parent="1">
          <mxGeometry x="440" y="1110" width="220" height="30" as="geometry" />
        </mxCell>
        <mxCell id="t1rXLY3Hh5dRlG1rRBzR-173" style="edgeStyle=orthogonalEdgeStyle;rounded=0;orthogonalLoop=1;jettySize=auto;html=1;exitX=0.5;exitY=0;exitDx=0;exitDy=0;entryX=0;entryY=0.5;entryDx=0;entryDy=0;" edge="1" parent="1" source="t1rXLY3Hh5dRlG1rRBzR-170" target="t1rXLY3Hh5dRlG1rRBzR-157">
          <mxGeometry relative="1" as="geometry">
            <Array as="points">
              <mxPoint x="100" y="1065" />
            </Array>
          </mxGeometry>
        </mxCell>
        <mxCell id="t1rXLY3Hh5dRlG1rRBzR-170" value="display &quot;invalid option&quot;" style="shape=parallelogram;perimeter=parallelogramPerimeter;whiteSpace=wrap;html=1;fixedSize=1;" vertex="1" parent="1">
          <mxGeometry x="-10" y="1180" width="220" height="30" as="geometry" />
        </mxCell>
        <mxCell id="t1rXLY3Hh5dRlG1rRBzR-178" style="edgeStyle=orthogonalEdgeStyle;rounded=0;orthogonalLoop=1;jettySize=auto;html=1;exitX=0.5;exitY=1;exitDx=0;exitDy=0;entryX=0.5;entryY=0;entryDx=0;entryDy=0;" edge="1" parent="1" source="t1rXLY3Hh5dRlG1rRBzR-174" target="t1rXLY3Hh5dRlG1rRBzR-177">
          <mxGeometry relative="1" as="geometry" />
        </mxCell>
        <mxCell id="t1rXLY3Hh5dRlG1rRBzR-174" value="read csv records" style="rounded=0;whiteSpace=wrap;html=1;" vertex="1" parent="1">
          <mxGeometry x="690" y="1110" width="170" height="30" as="geometry" />
        </mxCell>
        <mxCell id="t1rXLY3Hh5dRlG1rRBzR-185" style="edgeStyle=orthogonalEdgeStyle;rounded=0;orthogonalLoop=1;jettySize=auto;html=1;exitX=0.5;exitY=1;exitDx=0;exitDy=0;entryX=0.5;entryY=0;entryDx=0;entryDy=0;" edge="1" parent="1" source="t1rXLY3Hh5dRlG1rRBzR-177" target="t1rXLY3Hh5dRlG1rRBzR-184">
          <mxGeometry relative="1" as="geometry" />
        </mxCell>
        <mxCell id="t1rXLY3Hh5dRlG1rRBzR-186" value="Yes" style="edgeLabel;html=1;align=center;verticalAlign=middle;resizable=0;points=[];" vertex="1" connectable="0" parent="t1rXLY3Hh5dRlG1rRBzR-185">
          <mxGeometry x="-0.3931" y="1" relative="1" as="geometry">
            <mxPoint as="offset" />
          </mxGeometry>
        </mxCell>
        <mxCell id="t1rXLY3Hh5dRlG1rRBzR-393" style="edgeStyle=orthogonalEdgeStyle;rounded=0;orthogonalLoop=1;jettySize=auto;html=1;exitX=1;exitY=0.5;exitDx=0;exitDy=0;entryX=0;entryY=0.75;entryDx=0;entryDy=0;" edge="1" parent="1" source="t1rXLY3Hh5dRlG1rRBzR-177" target="t1rXLY3Hh5dRlG1rRBzR-390">
          <mxGeometry relative="1" as="geometry">
            <Array as="points">
              <mxPoint x="1030" y="1195" />
              <mxPoint x="1030" y="552" />
            </Array>
          </mxGeometry>
        </mxCell>
        <mxCell id="t1rXLY3Hh5dRlG1rRBzR-394" value="No" style="edgeLabel;html=1;align=center;verticalAlign=middle;resizable=0;points=[];" vertex="1" connectable="0" parent="t1rXLY3Hh5dRlG1rRBzR-393">
          <mxGeometry x="-0.8307" relative="1" as="geometry">
            <mxPoint as="offset" />
          </mxGeometry>
        </mxCell>
        <mxCell id="t1rXLY3Hh5dRlG1rRBzR-177" value="csv empty?" style="rhombus;whiteSpace=wrap;html=1;" vertex="1" parent="1">
          <mxGeometry x="690" y="1170" width="170" height="50" as="geometry" />
        </mxCell>
        <mxCell id="t1rXLY3Hh5dRlG1rRBzR-184" value="display &quot;no records found&quot;" style="shape=parallelogram;perimeter=parallelogramPerimeter;whiteSpace=wrap;html=1;fixedSize=1;" vertex="1" parent="1">
          <mxGeometry x="652.5" y="1250" width="245" height="30" as="geometry" />
        </mxCell>
        <mxCell id="t1rXLY3Hh5dRlG1rRBzR-192" style="edgeStyle=orthogonalEdgeStyle;rounded=0;orthogonalLoop=1;jettySize=auto;html=1;exitX=0.5;exitY=1;exitDx=0;exitDy=0;entryX=0.5;entryY=0;entryDx=0;entryDy=0;" edge="1" parent="1" source="t1rXLY3Hh5dRlG1rRBzR-187" target="t1rXLY3Hh5dRlG1rRBzR-191">
          <mxGeometry relative="1" as="geometry" />
        </mxCell>
        <mxCell id="t1rXLY3Hh5dRlG1rRBzR-187" value="read income" style="shape=parallelogram;perimeter=parallelogramPerimeter;whiteSpace=wrap;html=1;fixedSize=1;" vertex="1" parent="1">
          <mxGeometry x="210" y="1250" width="220" height="30" as="geometry" />
        </mxCell>
        <mxCell id="t1rXLY3Hh5dRlG1rRBzR-195" style="edgeStyle=orthogonalEdgeStyle;rounded=0;orthogonalLoop=1;jettySize=auto;html=1;exitX=0;exitY=0.5;exitDx=0;exitDy=0;" edge="1" parent="1" source="t1rXLY3Hh5dRlG1rRBzR-191" target="t1rXLY3Hh5dRlG1rRBzR-193">
          <mxGeometry relative="1" as="geometry" />
        </mxCell>
        <mxCell id="t1rXLY3Hh5dRlG1rRBzR-196" value="No" style="edgeLabel;html=1;align=center;verticalAlign=middle;resizable=0;points=[];" vertex="1" connectable="0" parent="t1rXLY3Hh5dRlG1rRBzR-195">
          <mxGeometry x="0.2556" y="1" relative="1" as="geometry">
            <mxPoint as="offset" />
          </mxGeometry>
        </mxCell>
        <mxCell id="t1rXLY3Hh5dRlG1rRBzR-199" style="edgeStyle=orthogonalEdgeStyle;rounded=0;orthogonalLoop=1;jettySize=auto;html=1;exitX=0.5;exitY=1;exitDx=0;exitDy=0;entryX=0.5;entryY=0;entryDx=0;entryDy=0;" edge="1" parent="1" source="t1rXLY3Hh5dRlG1rRBzR-191" target="t1rXLY3Hh5dRlG1rRBzR-198">
          <mxGeometry relative="1" as="geometry" />
        </mxCell>
        <mxCell id="t1rXLY3Hh5dRlG1rRBzR-271" value="Yes" style="edgeLabel;html=1;align=center;verticalAlign=middle;resizable=0;points=[];" vertex="1" connectable="0" parent="t1rXLY3Hh5dRlG1rRBzR-199">
          <mxGeometry x="-0.2296" relative="1" as="geometry">
            <mxPoint as="offset" />
          </mxGeometry>
        </mxCell>
        <mxCell id="t1rXLY3Hh5dRlG1rRBzR-191" value="income &amp;gt;= 0" style="rhombus;whiteSpace=wrap;html=1;" vertex="1" parent="1">
          <mxGeometry x="230" y="1300" width="180" height="50" as="geometry" />
        </mxCell>
        <mxCell id="t1rXLY3Hh5dRlG1rRBzR-194" style="edgeStyle=orthogonalEdgeStyle;rounded=0;orthogonalLoop=1;jettySize=auto;html=1;exitX=0.5;exitY=0;exitDx=0;exitDy=0;entryX=0;entryY=0.5;entryDx=0;entryDy=0;" edge="1" parent="1" source="t1rXLY3Hh5dRlG1rRBzR-193" target="t1rXLY3Hh5dRlG1rRBzR-187">
          <mxGeometry relative="1" as="geometry">
            <Array as="points">
              <mxPoint x="90" y="1265" />
            </Array>
          </mxGeometry>
        </mxCell>
        <mxCell id="t1rXLY3Hh5dRlG1rRBzR-193" value="display &quot;invalid income&quot;" style="shape=parallelogram;perimeter=parallelogramPerimeter;whiteSpace=wrap;html=1;fixedSize=1;" vertex="1" parent="1">
          <mxGeometry x="-20" y="1310" width="220" height="30" as="geometry" />
        </mxCell>
        <mxCell id="t1rXLY3Hh5dRlG1rRBzR-201" style="edgeStyle=orthogonalEdgeStyle;rounded=0;orthogonalLoop=1;jettySize=auto;html=1;exitX=0.5;exitY=1;exitDx=0;exitDy=0;entryX=0.5;entryY=0;entryDx=0;entryDy=0;" edge="1" parent="1" source="t1rXLY3Hh5dRlG1rRBzR-198" target="t1rXLY3Hh5dRlG1rRBzR-200">
          <mxGeometry relative="1" as="geometry" />
        </mxCell>
        <mxCell id="t1rXLY3Hh5dRlG1rRBzR-198" value="display &quot;Are you eligible for reliefs?&quot;" style="shape=parallelogram;perimeter=parallelogramPerimeter;whiteSpace=wrap;html=1;fixedSize=1;" vertex="1" parent="1">
          <mxGeometry x="210" y="1370" width="220" height="30" as="geometry" />
        </mxCell>
        <mxCell id="t1rXLY3Hh5dRlG1rRBzR-203" style="edgeStyle=orthogonalEdgeStyle;rounded=0;orthogonalLoop=1;jettySize=auto;html=1;exitX=0.5;exitY=1;exitDx=0;exitDy=0;entryX=0.5;entryY=0;entryDx=0;entryDy=0;" edge="1" parent="1" source="t1rXLY3Hh5dRlG1rRBzR-200" target="t1rXLY3Hh5dRlG1rRBzR-202">
          <mxGeometry relative="1" as="geometry" />
        </mxCell>
        <mxCell id="t1rXLY3Hh5dRlG1rRBzR-200" value="read relief_choice" style="shape=parallelogram;perimeter=parallelogramPerimeter;whiteSpace=wrap;html=1;fixedSize=1;" vertex="1" parent="1">
          <mxGeometry x="210" y="1420" width="220" height="30" as="geometry" />
        </mxCell>
        <mxCell id="t1rXLY3Hh5dRlG1rRBzR-206" style="edgeStyle=orthogonalEdgeStyle;rounded=0;orthogonalLoop=1;jettySize=auto;html=1;exitX=0.5;exitY=1;exitDx=0;exitDy=0;entryX=0.5;entryY=0;entryDx=0;entryDy=0;" edge="1" parent="1" source="t1rXLY3Hh5dRlG1rRBzR-202" target="t1rXLY3Hh5dRlG1rRBzR-205">
          <mxGeometry relative="1" as="geometry" />
        </mxCell>
        <mxCell id="t1rXLY3Hh5dRlG1rRBzR-211" value="No" style="edgeLabel;html=1;align=center;verticalAlign=middle;resizable=0;points=[];" vertex="1" connectable="0" parent="t1rXLY3Hh5dRlG1rRBzR-206">
          <mxGeometry x="-0.2899" y="-3" relative="1" as="geometry">
            <mxPoint as="offset" />
          </mxGeometry>
        </mxCell>
        <mxCell id="t1rXLY3Hh5dRlG1rRBzR-207" style="edgeStyle=orthogonalEdgeStyle;rounded=0;orthogonalLoop=1;jettySize=auto;html=1;exitX=1;exitY=0.5;exitDx=0;exitDy=0;entryX=0;entryY=0.5;entryDx=0;entryDy=0;" edge="1" parent="1" source="t1rXLY3Hh5dRlG1rRBzR-202" target="t1rXLY3Hh5dRlG1rRBzR-204">
          <mxGeometry relative="1" as="geometry" />
        </mxCell>
        <mxCell id="t1rXLY3Hh5dRlG1rRBzR-209" value="Yes" style="edgeLabel;html=1;align=center;verticalAlign=middle;resizable=0;points=[];" vertex="1" connectable="0" parent="t1rXLY3Hh5dRlG1rRBzR-207">
          <mxGeometry x="-0.2647" y="-2" relative="1" as="geometry">
            <mxPoint as="offset" />
          </mxGeometry>
        </mxCell>
        <mxCell id="t1rXLY3Hh5dRlG1rRBzR-202" value="relief_choice = 2" style="rhombus;whiteSpace=wrap;html=1;" vertex="1" parent="1">
          <mxGeometry x="230" y="1470" width="180" height="50" as="geometry" />
        </mxCell>
        <mxCell id="t1rXLY3Hh5dRlG1rRBzR-213" style="edgeStyle=orthogonalEdgeStyle;rounded=0;orthogonalLoop=1;jettySize=auto;html=1;exitX=1;exitY=0.5;exitDx=0;exitDy=0;entryX=0;entryY=0.5;entryDx=0;entryDy=0;" edge="1" parent="1" source="t1rXLY3Hh5dRlG1rRBzR-204" target="t1rXLY3Hh5dRlG1rRBzR-212">
          <mxGeometry relative="1" as="geometry" />
        </mxCell>
        <mxCell id="t1rXLY3Hh5dRlG1rRBzR-204" value="display &quot;proceeding without extra reliefs&quot;" style="shape=parallelogram;perimeter=parallelogramPerimeter;whiteSpace=wrap;html=1;fixedSize=1;" vertex="1" parent="1">
          <mxGeometry x="460" y="1480" width="240" height="30" as="geometry" />
        </mxCell>
        <mxCell id="t1rXLY3Hh5dRlG1rRBzR-219" style="edgeStyle=orthogonalEdgeStyle;rounded=0;orthogonalLoop=1;jettySize=auto;html=1;exitX=0.5;exitY=1;exitDx=0;exitDy=0;entryX=0.5;entryY=0;entryDx=0;entryDy=0;" edge="1" parent="1" source="t1rXLY3Hh5dRlG1rRBzR-205" target="t1rXLY3Hh5dRlG1rRBzR-216">
          <mxGeometry relative="1" as="geometry" />
        </mxCell>
        <mxCell id="t1rXLY3Hh5dRlG1rRBzR-220" value="Yes" style="edgeLabel;html=1;align=center;verticalAlign=middle;resizable=0;points=[];" vertex="1" connectable="0" parent="t1rXLY3Hh5dRlG1rRBzR-219">
          <mxGeometry x="-0.3425" y="-2" relative="1" as="geometry">
            <mxPoint as="offset" />
          </mxGeometry>
        </mxCell>
        <mxCell id="t1rXLY3Hh5dRlG1rRBzR-402" style="edgeStyle=orthogonalEdgeStyle;rounded=0;orthogonalLoop=1;jettySize=auto;html=1;exitX=0;exitY=0.5;exitDx=0;exitDy=0;entryX=0;entryY=0.5;entryDx=0;entryDy=0;" edge="1" parent="1" source="t1rXLY3Hh5dRlG1rRBzR-205" target="t1rXLY3Hh5dRlG1rRBzR-200">
          <mxGeometry relative="1" as="geometry">
            <Array as="points">
              <mxPoint x="160" y="1575" />
              <mxPoint x="160" y="1435" />
            </Array>
          </mxGeometry>
        </mxCell>
        <mxCell id="t1rXLY3Hh5dRlG1rRBzR-403" value="No" style="edgeLabel;html=1;align=center;verticalAlign=middle;resizable=0;points=[];" vertex="1" connectable="0" parent="t1rXLY3Hh5dRlG1rRBzR-402">
          <mxGeometry x="0.034" y="1" relative="1" as="geometry">
            <mxPoint as="offset" />
          </mxGeometry>
        </mxCell>
        <mxCell id="t1rXLY3Hh5dRlG1rRBzR-205" value="relief_choice = 1" style="rhombus;whiteSpace=wrap;html=1;" vertex="1" parent="1">
          <mxGeometry x="230" y="1550" width="180" height="50" as="geometry" />
        </mxCell>
        <mxCell id="t1rXLY3Hh5dRlG1rRBzR-314" style="edgeStyle=orthogonalEdgeStyle;rounded=0;orthogonalLoop=1;jettySize=auto;html=1;exitX=1;exitY=0.5;exitDx=0;exitDy=0;entryX=0;entryY=0.5;entryDx=0;entryDy=0;" edge="1" parent="1" source="t1rXLY3Hh5dRlG1rRBzR-212" target="t1rXLY3Hh5dRlG1rRBzR-312">
          <mxGeometry relative="1" as="geometry" />
        </mxCell>
        <mxCell id="t1rXLY3Hh5dRlG1rRBzR-212" value="total_relief = 9000" style="rounded=0;whiteSpace=wrap;html=1;" vertex="1" parent="1">
          <mxGeometry x="720" y="1480" width="170" height="30" as="geometry" />
        </mxCell>
        <mxCell id="t1rXLY3Hh5dRlG1rRBzR-221" style="edgeStyle=orthogonalEdgeStyle;rounded=0;orthogonalLoop=1;jettySize=auto;html=1;exitX=0.5;exitY=1;exitDx=0;exitDy=0;entryX=0.5;entryY=0;entryDx=0;entryDy=0;" edge="1" parent="1" source="t1rXLY3Hh5dRlG1rRBzR-216" target="t1rXLY3Hh5dRlG1rRBzR-218">
          <mxGeometry relative="1" as="geometry" />
        </mxCell>
        <mxCell id="t1rXLY3Hh5dRlG1rRBzR-216" value="initialise total_relief = 9000" style="rounded=0;whiteSpace=wrap;html=1;" vertex="1" parent="1">
          <mxGeometry x="235" y="1630" width="170" height="30" as="geometry" />
        </mxCell>
        <mxCell id="t1rXLY3Hh5dRlG1rRBzR-223" style="edgeStyle=orthogonalEdgeStyle;rounded=0;orthogonalLoop=1;jettySize=auto;html=1;exitX=0.5;exitY=1;exitDx=0;exitDy=0;entryX=0.5;entryY=0;entryDx=0;entryDy=0;" edge="1" parent="1" source="t1rXLY3Hh5dRlG1rRBzR-218" target="t1rXLY3Hh5dRlG1rRBzR-222">
          <mxGeometry relative="1" as="geometry" />
        </mxCell>
        <mxCell id="t1rXLY3Hh5dRlG1rRBzR-218" value="display &quot;relief_categories&quot;" style="shape=parallelogram;perimeter=parallelogramPerimeter;whiteSpace=wrap;html=1;fixedSize=1;" vertex="1" parent="1">
          <mxGeometry x="210" y="1680" width="220" height="30" as="geometry" />
        </mxCell>
        <mxCell id="t1rXLY3Hh5dRlG1rRBzR-225" style="edgeStyle=orthogonalEdgeStyle;rounded=0;orthogonalLoop=1;jettySize=auto;html=1;exitX=0.5;exitY=1;exitDx=0;exitDy=0;entryX=0.5;entryY=0;entryDx=0;entryDy=0;" edge="1" parent="1" source="t1rXLY3Hh5dRlG1rRBzR-222" target="t1rXLY3Hh5dRlG1rRBzR-224">
          <mxGeometry relative="1" as="geometry" />
        </mxCell>
        <mxCell id="t1rXLY3Hh5dRlG1rRBzR-222" value="read picked relief categories" style="shape=parallelogram;perimeter=parallelogramPerimeter;whiteSpace=wrap;html=1;fixedSize=1;" vertex="1" parent="1">
          <mxGeometry x="210" y="1730" width="220" height="30" as="geometry" />
        </mxCell>
        <mxCell id="t1rXLY3Hh5dRlG1rRBzR-227" style="edgeStyle=orthogonalEdgeStyle;rounded=0;orthogonalLoop=1;jettySize=auto;html=1;exitX=1;exitY=0.5;exitDx=0;exitDy=0;entryX=0;entryY=0.5;entryDx=0;entryDy=0;" edge="1" parent="1" source="t1rXLY3Hh5dRlG1rRBzR-224" target="t1rXLY3Hh5dRlG1rRBzR-266">
          <mxGeometry relative="1" as="geometry">
            <mxPoint x="460" y="1805" as="targetPoint" />
          </mxGeometry>
        </mxCell>
        <mxCell id="t1rXLY3Hh5dRlG1rRBzR-228" value="No" style="edgeLabel;html=1;align=center;verticalAlign=middle;resizable=0;points=[];" vertex="1" connectable="0" parent="t1rXLY3Hh5dRlG1rRBzR-227">
          <mxGeometry x="0.0726" y="1" relative="1" as="geometry">
            <mxPoint as="offset" />
          </mxGeometry>
        </mxCell>
        <mxCell id="t1rXLY3Hh5dRlG1rRBzR-239" style="edgeStyle=orthogonalEdgeStyle;rounded=0;orthogonalLoop=1;jettySize=auto;html=1;exitX=0.5;exitY=1;exitDx=0;exitDy=0;entryX=0.5;entryY=0;entryDx=0;entryDy=0;" edge="1" parent="1" source="t1rXLY3Hh5dRlG1rRBzR-224" target="t1rXLY3Hh5dRlG1rRBzR-232">
          <mxGeometry relative="1" as="geometry" />
        </mxCell>
        <mxCell id="t1rXLY3Hh5dRlG1rRBzR-240" value="Yes" style="edgeLabel;html=1;align=center;verticalAlign=middle;resizable=0;points=[];" vertex="1" connectable="0" parent="t1rXLY3Hh5dRlG1rRBzR-239">
          <mxGeometry x="-0.0286" y="-1" relative="1" as="geometry">
            <mxPoint as="offset" />
          </mxGeometry>
        </mxCell>
        <mxCell id="t1rXLY3Hh5dRlG1rRBzR-224" value="valid categories?" style="rhombus;whiteSpace=wrap;html=1;" vertex="1" parent="1">
          <mxGeometry x="230" y="1780" width="180" height="50" as="geometry" />
        </mxCell>
        <mxCell id="t1rXLY3Hh5dRlG1rRBzR-231" style="edgeStyle=orthogonalEdgeStyle;rounded=0;orthogonalLoop=1;jettySize=auto;html=1;exitX=1;exitY=0.5;exitDx=0;exitDy=0;entryX=0;entryY=0.5;entryDx=0;entryDy=0;" edge="1" parent="1" source="t1rXLY3Hh5dRlG1rRBzR-230" target="t1rXLY3Hh5dRlG1rRBzR-218">
          <mxGeometry relative="1" as="geometry" />
        </mxCell>
        <mxCell id="t1rXLY3Hh5dRlG1rRBzR-230" value="set {valid categories}" style="rounded=0;whiteSpace=wrap;html=1;" vertex="1" parent="1">
          <mxGeometry x="5" y="1610" width="170" height="30" as="geometry" />
        </mxCell>
        <mxCell id="t1rXLY3Hh5dRlG1rRBzR-238" style="edgeStyle=orthogonalEdgeStyle;rounded=0;orthogonalLoop=1;jettySize=auto;html=1;exitX=1;exitY=0.5;exitDx=0;exitDy=0;entryX=0;entryY=0.5;entryDx=0;entryDy=0;" edge="1" parent="1" source="t1rXLY3Hh5dRlG1rRBzR-232" target="t1rXLY3Hh5dRlG1rRBzR-237">
          <mxGeometry relative="1" as="geometry" />
        </mxCell>
        <mxCell id="t1rXLY3Hh5dRlG1rRBzR-259" value="Yes" style="edgeLabel;html=1;align=center;verticalAlign=middle;resizable=0;points=[];" vertex="1" connectable="0" parent="t1rXLY3Hh5dRlG1rRBzR-238">
          <mxGeometry x="0.1254" y="-2" relative="1" as="geometry">
            <mxPoint as="offset" />
          </mxGeometry>
        </mxCell>
        <mxCell id="t1rXLY3Hh5dRlG1rRBzR-258" style="edgeStyle=orthogonalEdgeStyle;rounded=0;orthogonalLoop=1;jettySize=auto;html=1;exitX=0.5;exitY=1;exitDx=0;exitDy=0;entryX=0.5;entryY=0;entryDx=0;entryDy=0;" edge="1" parent="1" source="t1rXLY3Hh5dRlG1rRBzR-232" target="t1rXLY3Hh5dRlG1rRBzR-257">
          <mxGeometry relative="1" as="geometry" />
        </mxCell>
        <mxCell id="t1rXLY3Hh5dRlG1rRBzR-260" value="No" style="edgeLabel;html=1;align=center;verticalAlign=middle;resizable=0;points=[];" vertex="1" connectable="0" parent="t1rXLY3Hh5dRlG1rRBzR-258">
          <mxGeometry x="-0.5342" y="3" relative="1" as="geometry">
            <mxPoint x="-3" y="3" as="offset" />
          </mxGeometry>
        </mxCell>
        <mxCell id="t1rXLY3Hh5dRlG1rRBzR-232" value="categories_mode == fixed?" style="rhombus;whiteSpace=wrap;html=1;" vertex="1" parent="1">
          <mxGeometry x="230" y="1850" width="180" height="50" as="geometry" />
        </mxCell>
        <mxCell id="t1rXLY3Hh5dRlG1rRBzR-245" style="edgeStyle=orthogonalEdgeStyle;rounded=0;orthogonalLoop=1;jettySize=auto;html=1;exitX=0.5;exitY=1;exitDx=0;exitDy=0;entryX=0.5;entryY=0;entryDx=0;entryDy=0;" edge="1" parent="1" source="t1rXLY3Hh5dRlG1rRBzR-237" target="t1rXLY3Hh5dRlG1rRBzR-244">
          <mxGeometry relative="1" as="geometry" />
        </mxCell>
        <mxCell id="t1rXLY3Hh5dRlG1rRBzR-237" value="read tax relief amount" style="shape=parallelogram;perimeter=parallelogramPerimeter;whiteSpace=wrap;html=1;fixedSize=1;" vertex="1" parent="1">
          <mxGeometry x="450" y="1860" width="220" height="30" as="geometry" />
        </mxCell>
        <mxCell id="t1rXLY3Hh5dRlG1rRBzR-249" style="edgeStyle=orthogonalEdgeStyle;rounded=0;orthogonalLoop=1;jettySize=auto;html=1;exitX=1;exitY=0.5;exitDx=0;exitDy=0;entryX=0.5;entryY=1;entryDx=0;entryDy=0;" edge="1" parent="1" source="t1rXLY3Hh5dRlG1rRBzR-244" target="t1rXLY3Hh5dRlG1rRBzR-247">
          <mxGeometry relative="1" as="geometry" />
        </mxCell>
        <mxCell id="t1rXLY3Hh5dRlG1rRBzR-252" value="No" style="edgeLabel;html=1;align=center;verticalAlign=middle;resizable=0;points=[];" vertex="1" connectable="0" parent="t1rXLY3Hh5dRlG1rRBzR-249">
          <mxGeometry x="-0.3785" y="-2" relative="1" as="geometry">
            <mxPoint as="offset" />
          </mxGeometry>
        </mxCell>
        <mxCell id="t1rXLY3Hh5dRlG1rRBzR-253" style="edgeStyle=orthogonalEdgeStyle;rounded=0;orthogonalLoop=1;jettySize=auto;html=1;exitX=0.5;exitY=1;exitDx=0;exitDy=0;entryX=0.5;entryY=0;entryDx=0;entryDy=0;" edge="1" parent="1" source="t1rXLY3Hh5dRlG1rRBzR-244" target="t1rXLY3Hh5dRlG1rRBzR-251">
          <mxGeometry relative="1" as="geometry" />
        </mxCell>
        <mxCell id="t1rXLY3Hh5dRlG1rRBzR-254" value="Yes" style="edgeLabel;html=1;align=center;verticalAlign=middle;resizable=0;points=[];" vertex="1" connectable="0" parent="t1rXLY3Hh5dRlG1rRBzR-253">
          <mxGeometry x="-0.354" relative="1" as="geometry">
            <mxPoint as="offset" />
          </mxGeometry>
        </mxCell>
        <mxCell id="t1rXLY3Hh5dRlG1rRBzR-244" value="tax relief amount &amp;gt;= 0" style="rhombus;whiteSpace=wrap;html=1;" vertex="1" parent="1">
          <mxGeometry x="470" y="1910" width="180" height="50" as="geometry" />
        </mxCell>
        <mxCell id="t1rXLY3Hh5dRlG1rRBzR-250" style="edgeStyle=orthogonalEdgeStyle;rounded=0;orthogonalLoop=1;jettySize=auto;html=1;exitX=0;exitY=0.5;exitDx=0;exitDy=0;entryX=1;entryY=0.5;entryDx=0;entryDy=0;" edge="1" parent="1" source="t1rXLY3Hh5dRlG1rRBzR-247" target="t1rXLY3Hh5dRlG1rRBzR-237">
          <mxGeometry relative="1" as="geometry" />
        </mxCell>
        <mxCell id="t1rXLY3Hh5dRlG1rRBzR-247" value="display &quot;invalid amount&quot;" style="shape=parallelogram;perimeter=parallelogramPerimeter;whiteSpace=wrap;html=1;fixedSize=1;" vertex="1" parent="1">
          <mxGeometry x="690" y="1860" width="220" height="30" as="geometry" />
        </mxCell>
        <mxCell id="t1rXLY3Hh5dRlG1rRBzR-268" style="edgeStyle=orthogonalEdgeStyle;rounded=0;orthogonalLoop=1;jettySize=auto;html=1;exitX=1;exitY=0.5;exitDx=0;exitDy=0;entryX=1;entryY=0.5;entryDx=0;entryDy=0;" edge="1" parent="1" source="t1rXLY3Hh5dRlG1rRBzR-251" target="t1rXLY3Hh5dRlG1rRBzR-218">
          <mxGeometry relative="1" as="geometry">
            <Array as="points">
              <mxPoint x="920" y="2005" />
              <mxPoint x="920" y="1695" />
            </Array>
          </mxGeometry>
        </mxCell>
        <mxCell id="t1rXLY3Hh5dRlG1rRBzR-251" value="relief = min(tax relief amount, cap)" style="rounded=0;whiteSpace=wrap;html=1;" vertex="1" parent="1">
          <mxGeometry x="457.5" y="1990" width="205" height="30" as="geometry" />
        </mxCell>
        <mxCell id="t1rXLY3Hh5dRlG1rRBzR-263" style="edgeStyle=orthogonalEdgeStyle;rounded=0;orthogonalLoop=1;jettySize=auto;html=1;exitX=0;exitY=0.5;exitDx=0;exitDy=0;entryX=1;entryY=0.5;entryDx=0;entryDy=0;" edge="1" parent="1" source="t1rXLY3Hh5dRlG1rRBzR-257" target="t1rXLY3Hh5dRlG1rRBzR-262">
          <mxGeometry relative="1" as="geometry" />
        </mxCell>
        <mxCell id="t1rXLY3Hh5dRlG1rRBzR-284" value="Yes" style="edgeLabel;html=1;align=center;verticalAlign=middle;resizable=0;points=[];" vertex="1" connectable="0" parent="t1rXLY3Hh5dRlG1rRBzR-263">
          <mxGeometry x="-0.2302" y="1" relative="1" as="geometry">
            <mxPoint as="offset" />
          </mxGeometry>
        </mxCell>
        <mxCell id="t1rXLY3Hh5dRlG1rRBzR-286" style="edgeStyle=orthogonalEdgeStyle;rounded=0;orthogonalLoop=1;jettySize=auto;html=1;exitX=0.5;exitY=1;exitDx=0;exitDy=0;entryX=0.5;entryY=0;entryDx=0;entryDy=0;" edge="1" parent="1" source="t1rXLY3Hh5dRlG1rRBzR-257" target="t1rXLY3Hh5dRlG1rRBzR-283">
          <mxGeometry relative="1" as="geometry" />
        </mxCell>
        <mxCell id="t1rXLY3Hh5dRlG1rRBzR-287" value="No" style="edgeLabel;html=1;align=center;verticalAlign=middle;resizable=0;points=[];" vertex="1" connectable="0" parent="t1rXLY3Hh5dRlG1rRBzR-286">
          <mxGeometry x="-0.0952" y="1" relative="1" as="geometry">
            <mxPoint as="offset" />
          </mxGeometry>
        </mxCell>
        <mxCell id="t1rXLY3Hh5dRlG1rRBzR-257" value="category_name == &quot;spouse&quot;" style="rhombus;whiteSpace=wrap;html=1;" vertex="1" parent="1">
          <mxGeometry x="230" y="1930" width="180" height="50" as="geometry" />
        </mxCell>
        <mxCell id="t1rXLY3Hh5dRlG1rRBzR-265" style="edgeStyle=orthogonalEdgeStyle;rounded=0;orthogonalLoop=1;jettySize=auto;html=1;exitX=0.5;exitY=1;exitDx=0;exitDy=0;entryX=0.5;entryY=0;entryDx=0;entryDy=0;" edge="1" parent="1" source="t1rXLY3Hh5dRlG1rRBzR-262" target="t1rXLY3Hh5dRlG1rRBzR-264">
          <mxGeometry relative="1" as="geometry" />
        </mxCell>
        <mxCell id="t1rXLY3Hh5dRlG1rRBzR-262" value="read spouse income" style="shape=parallelogram;perimeter=parallelogramPerimeter;whiteSpace=wrap;html=1;fixedSize=1;" vertex="1" parent="1">
          <mxGeometry x="-20" y="1940" width="220" height="30" as="geometry" />
        </mxCell>
        <mxCell id="t1rXLY3Hh5dRlG1rRBzR-273" style="edgeStyle=orthogonalEdgeStyle;rounded=0;orthogonalLoop=1;jettySize=auto;html=1;exitX=0.5;exitY=1;exitDx=0;exitDy=0;entryX=0.5;entryY=0;entryDx=0;entryDy=0;" edge="1" parent="1" source="t1rXLY3Hh5dRlG1rRBzR-264" target="t1rXLY3Hh5dRlG1rRBzR-272">
          <mxGeometry relative="1" as="geometry" />
        </mxCell>
        <mxCell id="t1rXLY3Hh5dRlG1rRBzR-278" value="Yes" style="edgeLabel;html=1;align=center;verticalAlign=middle;resizable=0;points=[];" vertex="1" connectable="0" parent="t1rXLY3Hh5dRlG1rRBzR-273">
          <mxGeometry x="0.0502" relative="1" as="geometry">
            <mxPoint as="offset" />
          </mxGeometry>
        </mxCell>
        <mxCell id="t1rXLY3Hh5dRlG1rRBzR-406" style="edgeStyle=orthogonalEdgeStyle;rounded=0;orthogonalLoop=1;jettySize=auto;html=1;exitX=0;exitY=0.5;exitDx=0;exitDy=0;entryX=1;entryY=0.5;entryDx=0;entryDy=0;" edge="1" parent="1" source="t1rXLY3Hh5dRlG1rRBzR-264" target="t1rXLY3Hh5dRlG1rRBzR-405">
          <mxGeometry relative="1" as="geometry" />
        </mxCell>
        <mxCell id="t1rXLY3Hh5dRlG1rRBzR-411" value="No" style="edgeLabel;html=1;align=center;verticalAlign=middle;resizable=0;points=[];" vertex="1" connectable="0" parent="t1rXLY3Hh5dRlG1rRBzR-406">
          <mxGeometry x="-0.5224" relative="1" as="geometry">
            <mxPoint as="offset" />
          </mxGeometry>
        </mxCell>
        <mxCell id="t1rXLY3Hh5dRlG1rRBzR-264" value="spouse income &amp;lt;= 4000" style="rhombus;whiteSpace=wrap;html=1;" vertex="1" parent="1">
          <mxGeometry x="-5" y="2000" width="180" height="50" as="geometry" />
        </mxCell>
        <mxCell id="t1rXLY3Hh5dRlG1rRBzR-313" style="edgeStyle=orthogonalEdgeStyle;rounded=0;orthogonalLoop=1;jettySize=auto;html=1;exitX=0.5;exitY=0;exitDx=0;exitDy=0;entryX=0.5;entryY=1;entryDx=0;entryDy=0;" edge="1" parent="1" source="t1rXLY3Hh5dRlG1rRBzR-266" target="t1rXLY3Hh5dRlG1rRBzR-312">
          <mxGeometry relative="1" as="geometry" />
        </mxCell>
        <mxCell id="t1rXLY3Hh5dRlG1rRBzR-266" value="total_relief += relief" style="rounded=0;whiteSpace=wrap;html=1;" vertex="1" parent="1">
          <mxGeometry x="972.5" y="1790" width="175" height="30" as="geometry" />
        </mxCell>
        <mxCell id="t1rXLY3Hh5dRlG1rRBzR-281" style="edgeStyle=orthogonalEdgeStyle;rounded=0;orthogonalLoop=1;jettySize=auto;html=1;exitX=0;exitY=0.5;exitDx=0;exitDy=0;entryX=0;entryY=0.75;entryDx=0;entryDy=0;" edge="1" parent="1" source="t1rXLY3Hh5dRlG1rRBzR-272" target="t1rXLY3Hh5dRlG1rRBzR-279">
          <mxGeometry relative="1" as="geometry" />
        </mxCell>
        <mxCell id="t1rXLY3Hh5dRlG1rRBzR-272" value="relief = 4000" style="rounded=0;whiteSpace=wrap;html=1;" vertex="1" parent="1">
          <mxGeometry x="-17.5" y="2080" width="205" height="30" as="geometry" />
        </mxCell>
        <mxCell id="t1rXLY3Hh5dRlG1rRBzR-282" style="edgeStyle=orthogonalEdgeStyle;rounded=0;orthogonalLoop=1;jettySize=auto;html=1;exitX=0.5;exitY=0;exitDx=0;exitDy=0;entryX=0;entryY=0.5;entryDx=0;entryDy=0;" edge="1" parent="1" source="t1rXLY3Hh5dRlG1rRBzR-279" target="t1rXLY3Hh5dRlG1rRBzR-218">
          <mxGeometry relative="1" as="geometry">
            <Array as="points">
              <mxPoint x="-142" y="1695" />
            </Array>
          </mxGeometry>
        </mxCell>
        <mxCell id="t1rXLY3Hh5dRlG1rRBzR-279" value="relief = relief" style="rounded=0;whiteSpace=wrap;html=1;" vertex="1" parent="1">
          <mxGeometry x="-245" y="1880" width="205" height="30" as="geometry" />
        </mxCell>
        <mxCell id="t1rXLY3Hh5dRlG1rRBzR-289" style="edgeStyle=orthogonalEdgeStyle;rounded=0;orthogonalLoop=1;jettySize=auto;html=1;exitX=0.5;exitY=1;exitDx=0;exitDy=0;entryX=0.5;entryY=0;entryDx=0;entryDy=0;" edge="1" parent="1" source="t1rXLY3Hh5dRlG1rRBzR-283" target="t1rXLY3Hh5dRlG1rRBzR-288">
          <mxGeometry relative="1" as="geometry" />
        </mxCell>
        <mxCell id="t1rXLY3Hh5dRlG1rRBzR-306" value="Yes" style="edgeLabel;html=1;align=center;verticalAlign=middle;resizable=0;points=[];" vertex="1" connectable="0" parent="t1rXLY3Hh5dRlG1rRBzR-289">
          <mxGeometry x="-0.2833" y="-3" relative="1" as="geometry">
            <mxPoint as="offset" />
          </mxGeometry>
        </mxCell>
        <mxCell id="t1rXLY3Hh5dRlG1rRBzR-307" style="edgeStyle=orthogonalEdgeStyle;rounded=0;orthogonalLoop=1;jettySize=auto;html=1;exitX=1;exitY=0.5;exitDx=0;exitDy=0;entryX=1;entryY=0.25;entryDx=0;entryDy=0;" edge="1" parent="1" source="t1rXLY3Hh5dRlG1rRBzR-283" target="t1rXLY3Hh5dRlG1rRBzR-218">
          <mxGeometry relative="1" as="geometry">
            <Array as="points">
              <mxPoint x="940" y="2035" />
              <mxPoint x="940" y="1688" />
            </Array>
          </mxGeometry>
        </mxCell>
        <mxCell id="t1rXLY3Hh5dRlG1rRBzR-309" value="No" style="edgeLabel;html=1;align=center;verticalAlign=middle;resizable=0;points=[];" vertex="1" connectable="0" parent="t1rXLY3Hh5dRlG1rRBzR-307">
          <mxGeometry x="-0.5435" y="-2" relative="1" as="geometry">
            <mxPoint as="offset" />
          </mxGeometry>
        </mxCell>
        <mxCell id="t1rXLY3Hh5dRlG1rRBzR-283" value="category_name == &quot;children&quot;" style="rhombus;whiteSpace=wrap;html=1;" vertex="1" parent="1">
          <mxGeometry x="220" y="2010" width="200" height="50" as="geometry" />
        </mxCell>
        <mxCell id="t1rXLY3Hh5dRlG1rRBzR-291" style="edgeStyle=orthogonalEdgeStyle;rounded=0;orthogonalLoop=1;jettySize=auto;html=1;exitX=0.5;exitY=1;exitDx=0;exitDy=0;entryX=0.5;entryY=0;entryDx=0;entryDy=0;" edge="1" parent="1" source="t1rXLY3Hh5dRlG1rRBzR-288" target="t1rXLY3Hh5dRlG1rRBzR-290">
          <mxGeometry relative="1" as="geometry" />
        </mxCell>
        <mxCell id="t1rXLY3Hh5dRlG1rRBzR-288" value="read number of children" style="shape=parallelogram;perimeter=parallelogramPerimeter;whiteSpace=wrap;html=1;fixedSize=1;" vertex="1" parent="1">
          <mxGeometry x="210" y="2080" width="220" height="30" as="geometry" />
        </mxCell>
        <mxCell id="t1rXLY3Hh5dRlG1rRBzR-293" style="edgeStyle=orthogonalEdgeStyle;rounded=0;orthogonalLoop=1;jettySize=auto;html=1;exitX=0.5;exitY=1;exitDx=0;exitDy=0;entryX=0.5;entryY=0;entryDx=0;entryDy=0;" edge="1" parent="1" source="t1rXLY3Hh5dRlG1rRBzR-290" target="t1rXLY3Hh5dRlG1rRBzR-292">
          <mxGeometry relative="1" as="geometry" />
        </mxCell>
        <mxCell id="t1rXLY3Hh5dRlG1rRBzR-300" value="Yes" style="edgeLabel;html=1;align=center;verticalAlign=middle;resizable=0;points=[];" vertex="1" connectable="0" parent="t1rXLY3Hh5dRlG1rRBzR-293">
          <mxGeometry x="-0.246" relative="1" as="geometry">
            <mxPoint as="offset" />
          </mxGeometry>
        </mxCell>
        <mxCell id="t1rXLY3Hh5dRlG1rRBzR-408" style="edgeStyle=orthogonalEdgeStyle;rounded=0;orthogonalLoop=1;jettySize=auto;html=1;exitX=1;exitY=0.5;exitDx=0;exitDy=0;entryX=0;entryY=0.5;entryDx=0;entryDy=0;" edge="1" parent="1" source="t1rXLY3Hh5dRlG1rRBzR-290" target="t1rXLY3Hh5dRlG1rRBzR-404">
          <mxGeometry relative="1" as="geometry" />
        </mxCell>
        <mxCell id="t1rXLY3Hh5dRlG1rRBzR-412" value="No" style="edgeLabel;html=1;align=center;verticalAlign=middle;resizable=0;points=[];" vertex="1" connectable="0" parent="t1rXLY3Hh5dRlG1rRBzR-408">
          <mxGeometry x="-0.2951" y="2" relative="1" as="geometry">
            <mxPoint as="offset" />
          </mxGeometry>
        </mxCell>
        <mxCell id="t1rXLY3Hh5dRlG1rRBzR-290" value="children &amp;gt;= 0" style="rhombus;whiteSpace=wrap;html=1;" vertex="1" parent="1">
          <mxGeometry x="220" y="2130" width="200" height="50" as="geometry" />
        </mxCell>
        <mxCell id="t1rXLY3Hh5dRlG1rRBzR-297" style="edgeStyle=orthogonalEdgeStyle;rounded=0;orthogonalLoop=1;jettySize=auto;html=1;exitX=0;exitY=0.5;exitDx=0;exitDy=0;entryX=0;entryY=0.25;entryDx=0;entryDy=0;" edge="1" parent="1" source="t1rXLY3Hh5dRlG1rRBzR-292" target="t1rXLY3Hh5dRlG1rRBzR-279">
          <mxGeometry relative="1" as="geometry">
            <mxPoint x="-310" y="1970" as="targetPoint" />
            <Array as="points">
              <mxPoint x="-290" y="2225" />
              <mxPoint x="-290" y="1888" />
              <mxPoint x="-245" y="1888" />
            </Array>
          </mxGeometry>
        </mxCell>
        <mxCell id="t1rXLY3Hh5dRlG1rRBzR-292" value="relief = min(number of children*8000, 12*8000)" style="rounded=0;whiteSpace=wrap;html=1;" vertex="1" parent="1">
          <mxGeometry x="220" y="2210" width="205" height="30" as="geometry" />
        </mxCell>
        <mxCell id="t1rXLY3Hh5dRlG1rRBzR-308" style="edgeStyle=orthogonalEdgeStyle;rounded=0;orthogonalLoop=1;jettySize=auto;html=1;exitX=1;exitY=1;exitDx=0;exitDy=-15;exitPerimeter=0;" edge="1" parent="1" source="t1rXLY3Hh5dRlG1rRBzR-94">
          <mxGeometry relative="1" as="geometry">
            <mxPoint x="706" y="1110" as="targetPoint" />
          </mxGeometry>
        </mxCell>
        <mxCell id="t1rXLY3Hh5dRlG1rRBzR-317" style="edgeStyle=orthogonalEdgeStyle;rounded=0;orthogonalLoop=1;jettySize=auto;html=1;exitX=1;exitY=0.5;exitDx=0;exitDy=0;entryX=0;entryY=0.5;entryDx=0;entryDy=0;" edge="1" parent="1" source="t1rXLY3Hh5dRlG1rRBzR-312" target="t1rXLY3Hh5dRlG1rRBzR-316">
          <mxGeometry relative="1" as="geometry" />
        </mxCell>
        <mxCell id="t1rXLY3Hh5dRlG1rRBzR-312" value="final relief = total_relief" style="rounded=0;whiteSpace=wrap;html=1;" vertex="1" parent="1">
          <mxGeometry x="975" y="1480" width="170" height="30" as="geometry" />
        </mxCell>
        <mxCell id="t1rXLY3Hh5dRlG1rRBzR-315" style="edgeStyle=orthogonalEdgeStyle;rounded=0;orthogonalLoop=1;jettySize=auto;html=1;entryX=1.002;entryY=0.773;entryDx=0;entryDy=0;entryPerimeter=0;exitX=0.886;exitY=-0.012;exitDx=0;exitDy=0;exitPerimeter=0;" edge="1" parent="1" source="t1rXLY3Hh5dRlG1rRBzR-312" target="t1rXLY3Hh5dRlG1rRBzR-94">
          <mxGeometry relative="1" as="geometry">
            <mxPoint x="1102" y="1450" as="sourcePoint" />
            <Array as="points">
              <mxPoint x="1126" y="610" />
            </Array>
          </mxGeometry>
        </mxCell>
        <mxCell id="t1rXLY3Hh5dRlG1rRBzR-327" style="edgeStyle=orthogonalEdgeStyle;rounded=0;orthogonalLoop=1;jettySize=auto;html=1;exitX=0.5;exitY=0;exitDx=0;exitDy=0;entryX=0.5;entryY=1;entryDx=0;entryDy=0;" edge="1" parent="1" source="t1rXLY3Hh5dRlG1rRBzR-316" target="t1rXLY3Hh5dRlG1rRBzR-318">
          <mxGeometry relative="1" as="geometry" />
        </mxCell>
        <mxCell id="t1rXLY3Hh5dRlG1rRBzR-316" value="taxable income = income - final relief" style="rounded=0;whiteSpace=wrap;html=1;" vertex="1" parent="1">
          <mxGeometry x="1180" y="1480" width="200" height="30" as="geometry" />
        </mxCell>
        <mxCell id="t1rXLY3Hh5dRlG1rRBzR-328" style="edgeStyle=orthogonalEdgeStyle;rounded=0;orthogonalLoop=1;jettySize=auto;html=1;exitX=0.5;exitY=0;exitDx=0;exitDy=0;entryX=0.5;entryY=1;entryDx=0;entryDy=0;" edge="1" parent="1" source="t1rXLY3Hh5dRlG1rRBzR-318" target="t1rXLY3Hh5dRlG1rRBzR-319">
          <mxGeometry relative="1" as="geometry" />
        </mxCell>
        <mxCell id="t1rXLY3Hh5dRlG1rRBzR-373" value="No" style="edgeLabel;html=1;align=center;verticalAlign=middle;resizable=0;points=[];" vertex="1" connectable="0" parent="t1rXLY3Hh5dRlG1rRBzR-328">
          <mxGeometry x="-0.2059" y="-2" relative="1" as="geometry">
            <mxPoint as="offset" />
          </mxGeometry>
        </mxCell>
        <mxCell id="t1rXLY3Hh5dRlG1rRBzR-346" style="edgeStyle=orthogonalEdgeStyle;rounded=0;orthogonalLoop=1;jettySize=auto;html=1;exitX=1;exitY=0.5;exitDx=0;exitDy=0;entryX=0;entryY=0.5;entryDx=0;entryDy=0;" edge="1" parent="1" source="t1rXLY3Hh5dRlG1rRBzR-318" target="t1rXLY3Hh5dRlG1rRBzR-337">
          <mxGeometry relative="1" as="geometry" />
        </mxCell>
        <mxCell id="t1rXLY3Hh5dRlG1rRBzR-357" value="Yes" style="edgeLabel;html=1;align=center;verticalAlign=middle;resizable=0;points=[];" vertex="1" connectable="0" parent="t1rXLY3Hh5dRlG1rRBzR-346">
          <mxGeometry x="-0.1467" y="-1" relative="1" as="geometry">
            <mxPoint as="offset" />
          </mxGeometry>
        </mxCell>
        <mxCell id="t1rXLY3Hh5dRlG1rRBzR-318" value="taxable income &amp;lt;= 5000" style="rhombus;whiteSpace=wrap;html=1;" vertex="1" parent="1">
          <mxGeometry x="1195" y="1410" width="170" height="50" as="geometry" />
        </mxCell>
        <mxCell id="t1rXLY3Hh5dRlG1rRBzR-329" style="edgeStyle=orthogonalEdgeStyle;rounded=0;orthogonalLoop=1;jettySize=auto;html=1;exitX=0.5;exitY=0;exitDx=0;exitDy=0;entryX=0.5;entryY=1;entryDx=0;entryDy=0;" edge="1" parent="1" source="t1rXLY3Hh5dRlG1rRBzR-319" target="t1rXLY3Hh5dRlG1rRBzR-320">
          <mxGeometry relative="1" as="geometry" />
        </mxCell>
        <mxCell id="t1rXLY3Hh5dRlG1rRBzR-372" value="No" style="edgeLabel;html=1;align=center;verticalAlign=middle;resizable=0;points=[];" vertex="1" connectable="0" parent="t1rXLY3Hh5dRlG1rRBzR-329">
          <mxGeometry x="-0.3235" y="1" relative="1" as="geometry">
            <mxPoint as="offset" />
          </mxGeometry>
        </mxCell>
        <mxCell id="t1rXLY3Hh5dRlG1rRBzR-348" style="edgeStyle=orthogonalEdgeStyle;rounded=0;orthogonalLoop=1;jettySize=auto;html=1;exitX=1;exitY=0.5;exitDx=0;exitDy=0;entryX=0;entryY=0.5;entryDx=0;entryDy=0;" edge="1" parent="1" source="t1rXLY3Hh5dRlG1rRBzR-319" target="t1rXLY3Hh5dRlG1rRBzR-338">
          <mxGeometry relative="1" as="geometry" />
        </mxCell>
        <mxCell id="t1rXLY3Hh5dRlG1rRBzR-358" value="Yes" style="edgeLabel;html=1;align=center;verticalAlign=middle;resizable=0;points=[];" vertex="1" connectable="0" parent="t1rXLY3Hh5dRlG1rRBzR-348">
          <mxGeometry x="0.1357" y="2" relative="1" as="geometry">
            <mxPoint as="offset" />
          </mxGeometry>
        </mxCell>
        <mxCell id="t1rXLY3Hh5dRlG1rRBzR-319" value="taxable income &amp;lt;= 20000" style="rhombus;whiteSpace=wrap;html=1;" vertex="1" parent="1">
          <mxGeometry x="1195" y="1340" width="170" height="50" as="geometry" />
        </mxCell>
        <mxCell id="t1rXLY3Hh5dRlG1rRBzR-330" style="edgeStyle=orthogonalEdgeStyle;rounded=0;orthogonalLoop=1;jettySize=auto;html=1;exitX=0.5;exitY=0;exitDx=0;exitDy=0;entryX=0.5;entryY=1;entryDx=0;entryDy=0;" edge="1" parent="1" source="t1rXLY3Hh5dRlG1rRBzR-320" target="t1rXLY3Hh5dRlG1rRBzR-321">
          <mxGeometry relative="1" as="geometry" />
        </mxCell>
        <mxCell id="t1rXLY3Hh5dRlG1rRBzR-371" value="No" style="edgeLabel;html=1;align=center;verticalAlign=middle;resizable=0;points=[];" vertex="1" connectable="0" parent="t1rXLY3Hh5dRlG1rRBzR-330">
          <mxGeometry x="-0.3824" y="1" relative="1" as="geometry">
            <mxPoint as="offset" />
          </mxGeometry>
        </mxCell>
        <mxCell id="t1rXLY3Hh5dRlG1rRBzR-349" style="edgeStyle=orthogonalEdgeStyle;rounded=0;orthogonalLoop=1;jettySize=auto;html=1;exitX=1;exitY=0.5;exitDx=0;exitDy=0;entryX=0;entryY=0.5;entryDx=0;entryDy=0;" edge="1" parent="1" source="t1rXLY3Hh5dRlG1rRBzR-320" target="t1rXLY3Hh5dRlG1rRBzR-339">
          <mxGeometry relative="1" as="geometry" />
        </mxCell>
        <mxCell id="t1rXLY3Hh5dRlG1rRBzR-359" value="Yes" style="edgeLabel;html=1;align=center;verticalAlign=middle;resizable=0;points=[];" vertex="1" connectable="0" parent="t1rXLY3Hh5dRlG1rRBzR-349">
          <mxGeometry x="-0.5702" y="1" relative="1" as="geometry">
            <mxPoint as="offset" />
          </mxGeometry>
        </mxCell>
        <mxCell id="t1rXLY3Hh5dRlG1rRBzR-320" value="taxable income &amp;lt;= 35000" style="rhombus;whiteSpace=wrap;html=1;" vertex="1" parent="1">
          <mxGeometry x="1195" y="1270" width="170" height="50" as="geometry" />
        </mxCell>
        <mxCell id="t1rXLY3Hh5dRlG1rRBzR-331" style="edgeStyle=orthogonalEdgeStyle;rounded=0;orthogonalLoop=1;jettySize=auto;html=1;exitX=0.5;exitY=0;exitDx=0;exitDy=0;entryX=0.5;entryY=1;entryDx=0;entryDy=0;" edge="1" parent="1" source="t1rXLY3Hh5dRlG1rRBzR-321" target="t1rXLY3Hh5dRlG1rRBzR-322">
          <mxGeometry relative="1" as="geometry" />
        </mxCell>
        <mxCell id="t1rXLY3Hh5dRlG1rRBzR-370" value="No" style="edgeLabel;html=1;align=center;verticalAlign=middle;resizable=0;points=[];" vertex="1" connectable="0" parent="t1rXLY3Hh5dRlG1rRBzR-331">
          <mxGeometry x="-0.3824" relative="1" as="geometry">
            <mxPoint as="offset" />
          </mxGeometry>
        </mxCell>
        <mxCell id="t1rXLY3Hh5dRlG1rRBzR-350" style="edgeStyle=orthogonalEdgeStyle;rounded=0;orthogonalLoop=1;jettySize=auto;html=1;exitX=1;exitY=0.5;exitDx=0;exitDy=0;entryX=0;entryY=0.5;entryDx=0;entryDy=0;" edge="1" parent="1" source="t1rXLY3Hh5dRlG1rRBzR-321" target="t1rXLY3Hh5dRlG1rRBzR-340">
          <mxGeometry relative="1" as="geometry" />
        </mxCell>
        <mxCell id="t1rXLY3Hh5dRlG1rRBzR-360" value="Yes" style="edgeLabel;html=1;align=center;verticalAlign=middle;resizable=0;points=[];" vertex="1" connectable="0" parent="t1rXLY3Hh5dRlG1rRBzR-350">
          <mxGeometry x="-0.4057" y="2" relative="1" as="geometry">
            <mxPoint as="offset" />
          </mxGeometry>
        </mxCell>
        <mxCell id="t1rXLY3Hh5dRlG1rRBzR-321" value="taxable income &amp;lt;= 50000" style="rhombus;whiteSpace=wrap;html=1;" vertex="1" parent="1">
          <mxGeometry x="1195" y="1200" width="170" height="50" as="geometry" />
        </mxCell>
        <mxCell id="t1rXLY3Hh5dRlG1rRBzR-333" style="edgeStyle=orthogonalEdgeStyle;rounded=0;orthogonalLoop=1;jettySize=auto;html=1;exitX=0.5;exitY=0;exitDx=0;exitDy=0;entryX=0.5;entryY=1;entryDx=0;entryDy=0;" edge="1" parent="1" source="t1rXLY3Hh5dRlG1rRBzR-322" target="t1rXLY3Hh5dRlG1rRBzR-323">
          <mxGeometry relative="1" as="geometry" />
        </mxCell>
        <mxCell id="t1rXLY3Hh5dRlG1rRBzR-369" value="No" style="edgeLabel;html=1;align=center;verticalAlign=middle;resizable=0;points=[];" vertex="1" connectable="0" parent="t1rXLY3Hh5dRlG1rRBzR-333">
          <mxGeometry x="-0.2647" relative="1" as="geometry">
            <mxPoint as="offset" />
          </mxGeometry>
        </mxCell>
        <mxCell id="t1rXLY3Hh5dRlG1rRBzR-351" style="edgeStyle=orthogonalEdgeStyle;rounded=0;orthogonalLoop=1;jettySize=auto;html=1;exitX=1;exitY=0.5;exitDx=0;exitDy=0;entryX=0;entryY=0.5;entryDx=0;entryDy=0;" edge="1" parent="1" source="t1rXLY3Hh5dRlG1rRBzR-322" target="t1rXLY3Hh5dRlG1rRBzR-341">
          <mxGeometry relative="1" as="geometry" />
        </mxCell>
        <mxCell id="t1rXLY3Hh5dRlG1rRBzR-361" value="Yes" style="edgeLabel;html=1;align=center;verticalAlign=middle;resizable=0;points=[];" vertex="1" connectable="0" parent="t1rXLY3Hh5dRlG1rRBzR-351">
          <mxGeometry x="-0.0525" y="1" relative="1" as="geometry">
            <mxPoint as="offset" />
          </mxGeometry>
        </mxCell>
        <mxCell id="t1rXLY3Hh5dRlG1rRBzR-322" value="taxable income &amp;lt;= 70000" style="rhombus;whiteSpace=wrap;html=1;" vertex="1" parent="1">
          <mxGeometry x="1195" y="1130" width="170" height="50" as="geometry" />
        </mxCell>
        <mxCell id="t1rXLY3Hh5dRlG1rRBzR-334" style="edgeStyle=orthogonalEdgeStyle;rounded=0;orthogonalLoop=1;jettySize=auto;html=1;exitX=0.5;exitY=0;exitDx=0;exitDy=0;entryX=0.5;entryY=1;entryDx=0;entryDy=0;" edge="1" parent="1" source="t1rXLY3Hh5dRlG1rRBzR-323" target="t1rXLY3Hh5dRlG1rRBzR-324">
          <mxGeometry relative="1" as="geometry" />
        </mxCell>
        <mxCell id="t1rXLY3Hh5dRlG1rRBzR-368" value="No" style="edgeLabel;html=1;align=center;verticalAlign=middle;resizable=0;points=[];" vertex="1" connectable="0" parent="t1rXLY3Hh5dRlG1rRBzR-334">
          <mxGeometry x="-0.3824" relative="1" as="geometry">
            <mxPoint as="offset" />
          </mxGeometry>
        </mxCell>
        <mxCell id="t1rXLY3Hh5dRlG1rRBzR-353" style="edgeStyle=orthogonalEdgeStyle;rounded=0;orthogonalLoop=1;jettySize=auto;html=1;exitX=1;exitY=0.5;exitDx=0;exitDy=0;entryX=0;entryY=0.5;entryDx=0;entryDy=0;" edge="1" parent="1" source="t1rXLY3Hh5dRlG1rRBzR-323" target="t1rXLY3Hh5dRlG1rRBzR-342">
          <mxGeometry relative="1" as="geometry" />
        </mxCell>
        <mxCell id="t1rXLY3Hh5dRlG1rRBzR-362" value="Yes" style="edgeLabel;html=1;align=center;verticalAlign=middle;resizable=0;points=[];" vertex="1" connectable="0" parent="t1rXLY3Hh5dRlG1rRBzR-353">
          <mxGeometry x="-0.5231" y="5" relative="1" as="geometry">
            <mxPoint as="offset" />
          </mxGeometry>
        </mxCell>
        <mxCell id="t1rXLY3Hh5dRlG1rRBzR-323" value="taxable income &amp;lt;= 100000" style="rhombus;whiteSpace=wrap;html=1;" vertex="1" parent="1">
          <mxGeometry x="1195" y="1060" width="170" height="50" as="geometry" />
        </mxCell>
        <mxCell id="t1rXLY3Hh5dRlG1rRBzR-335" style="edgeStyle=orthogonalEdgeStyle;rounded=0;orthogonalLoop=1;jettySize=auto;html=1;exitX=0.5;exitY=0;exitDx=0;exitDy=0;entryX=0.5;entryY=1;entryDx=0;entryDy=0;" edge="1" parent="1" source="t1rXLY3Hh5dRlG1rRBzR-324" target="t1rXLY3Hh5dRlG1rRBzR-325">
          <mxGeometry relative="1" as="geometry" />
        </mxCell>
        <mxCell id="t1rXLY3Hh5dRlG1rRBzR-367" value="No" style="edgeLabel;html=1;align=center;verticalAlign=middle;resizable=0;points=[];" vertex="1" connectable="0" parent="t1rXLY3Hh5dRlG1rRBzR-335">
          <mxGeometry x="0.2647" relative="1" as="geometry">
            <mxPoint y="2" as="offset" />
          </mxGeometry>
        </mxCell>
        <mxCell id="t1rXLY3Hh5dRlG1rRBzR-354" style="edgeStyle=orthogonalEdgeStyle;rounded=0;orthogonalLoop=1;jettySize=auto;html=1;exitX=1;exitY=0.5;exitDx=0;exitDy=0;entryX=0;entryY=0.5;entryDx=0;entryDy=0;" edge="1" parent="1" source="t1rXLY3Hh5dRlG1rRBzR-324" target="t1rXLY3Hh5dRlG1rRBzR-343">
          <mxGeometry relative="1" as="geometry" />
        </mxCell>
        <mxCell id="t1rXLY3Hh5dRlG1rRBzR-363" value="Yes" style="edgeLabel;html=1;align=center;verticalAlign=middle;resizable=0;points=[];" vertex="1" connectable="0" parent="t1rXLY3Hh5dRlG1rRBzR-354">
          <mxGeometry x="-0.2878" y="1" relative="1" as="geometry">
            <mxPoint as="offset" />
          </mxGeometry>
        </mxCell>
        <mxCell id="t1rXLY3Hh5dRlG1rRBzR-324" value="taxable income &amp;lt;= 400000" style="rhombus;whiteSpace=wrap;html=1;" vertex="1" parent="1">
          <mxGeometry x="1195" y="990" width="170" height="50" as="geometry" />
        </mxCell>
        <mxCell id="t1rXLY3Hh5dRlG1rRBzR-336" style="edgeStyle=orthogonalEdgeStyle;rounded=0;orthogonalLoop=1;jettySize=auto;html=1;exitX=0.5;exitY=0;exitDx=0;exitDy=0;entryX=0.5;entryY=1;entryDx=0;entryDy=0;" edge="1" parent="1" source="t1rXLY3Hh5dRlG1rRBzR-325" target="t1rXLY3Hh5dRlG1rRBzR-326">
          <mxGeometry relative="1" as="geometry" />
        </mxCell>
        <mxCell id="t1rXLY3Hh5dRlG1rRBzR-366" value="No" style="edgeLabel;html=1;align=center;verticalAlign=middle;resizable=0;points=[];" vertex="1" connectable="0" parent="t1rXLY3Hh5dRlG1rRBzR-336">
          <mxGeometry x="-0.1471" relative="1" as="geometry">
            <mxPoint as="offset" />
          </mxGeometry>
        </mxCell>
        <mxCell id="t1rXLY3Hh5dRlG1rRBzR-355" style="edgeStyle=orthogonalEdgeStyle;rounded=0;orthogonalLoop=1;jettySize=auto;html=1;exitX=1;exitY=0.5;exitDx=0;exitDy=0;entryX=0;entryY=0.5;entryDx=0;entryDy=0;" edge="1" parent="1" source="t1rXLY3Hh5dRlG1rRBzR-325" target="t1rXLY3Hh5dRlG1rRBzR-344">
          <mxGeometry relative="1" as="geometry" />
        </mxCell>
        <mxCell id="t1rXLY3Hh5dRlG1rRBzR-364" value="Yes" style="edgeLabel;html=1;align=center;verticalAlign=middle;resizable=0;points=[];" vertex="1" connectable="0" parent="t1rXLY3Hh5dRlG1rRBzR-355">
          <mxGeometry x="-0.2408" y="-1" relative="1" as="geometry">
            <mxPoint as="offset" />
          </mxGeometry>
        </mxCell>
        <mxCell id="t1rXLY3Hh5dRlG1rRBzR-325" value="taxable income &amp;lt;=600000" style="rhombus;whiteSpace=wrap;html=1;" vertex="1" parent="1">
          <mxGeometry x="1195" y="920" width="170" height="50" as="geometry" />
        </mxCell>
        <mxCell id="t1rXLY3Hh5dRlG1rRBzR-356" style="edgeStyle=orthogonalEdgeStyle;rounded=0;orthogonalLoop=1;jettySize=auto;html=1;exitX=1;exitY=0.5;exitDx=0;exitDy=0;" edge="1" parent="1" source="t1rXLY3Hh5dRlG1rRBzR-326" target="t1rXLY3Hh5dRlG1rRBzR-345">
          <mxGeometry relative="1" as="geometry" />
        </mxCell>
        <mxCell id="t1rXLY3Hh5dRlG1rRBzR-365" value="Yes" style="edgeLabel;html=1;align=center;verticalAlign=middle;resizable=0;points=[];" vertex="1" connectable="0" parent="t1rXLY3Hh5dRlG1rRBzR-356">
          <mxGeometry x="-0.6121" y="3" relative="1" as="geometry">
            <mxPoint as="offset" />
          </mxGeometry>
        </mxCell>
        <mxCell id="t1rXLY3Hh5dRlG1rRBzR-375" style="edgeStyle=orthogonalEdgeStyle;rounded=0;orthogonalLoop=1;jettySize=auto;html=1;exitX=0.5;exitY=0;exitDx=0;exitDy=0;entryX=0.5;entryY=1;entryDx=0;entryDy=0;" edge="1" parent="1" source="t1rXLY3Hh5dRlG1rRBzR-326" target="t1rXLY3Hh5dRlG1rRBzR-374">
          <mxGeometry relative="1" as="geometry" />
        </mxCell>
        <mxCell id="t1rXLY3Hh5dRlG1rRBzR-326" value="taxable income &amp;lt;=2000000" style="rhombus;whiteSpace=wrap;html=1;" vertex="1" parent="1">
          <mxGeometry x="1195" y="850" width="170" height="50" as="geometry" />
        </mxCell>
        <mxCell id="t1rXLY3Hh5dRlG1rRBzR-387" style="edgeStyle=orthogonalEdgeStyle;rounded=0;orthogonalLoop=1;jettySize=auto;html=1;exitX=1;exitY=0.5;exitDx=0;exitDy=0;" edge="1" parent="1" source="t1rXLY3Hh5dRlG1rRBzR-337">
          <mxGeometry relative="1" as="geometry">
            <mxPoint x="1610" y="1360" as="targetPoint" />
          </mxGeometry>
        </mxCell>
        <mxCell id="t1rXLY3Hh5dRlG1rRBzR-337" value="tax = 0" style="rounded=0;whiteSpace=wrap;html=1;" vertex="1" parent="1">
          <mxGeometry x="1390" y="1420" width="200" height="30" as="geometry" />
        </mxCell>
        <mxCell id="t1rXLY3Hh5dRlG1rRBzR-386" style="edgeStyle=orthogonalEdgeStyle;rounded=0;orthogonalLoop=1;jettySize=auto;html=1;exitX=1;exitY=0.5;exitDx=0;exitDy=0;" edge="1" parent="1" source="t1rXLY3Hh5dRlG1rRBzR-338">
          <mxGeometry relative="1" as="geometry">
            <mxPoint x="1610" y="1290" as="targetPoint" />
          </mxGeometry>
        </mxCell>
        <mxCell id="t1rXLY3Hh5dRlG1rRBzR-338" value="tax = taxable income * 0.01" style="rounded=0;whiteSpace=wrap;html=1;" vertex="1" parent="1">
          <mxGeometry x="1390" y="1350" width="200" height="30" as="geometry" />
        </mxCell>
        <mxCell id="t1rXLY3Hh5dRlG1rRBzR-385" style="edgeStyle=orthogonalEdgeStyle;rounded=0;orthogonalLoop=1;jettySize=auto;html=1;exitX=1;exitY=0.5;exitDx=0;exitDy=0;" edge="1" parent="1" source="t1rXLY3Hh5dRlG1rRBzR-339">
          <mxGeometry relative="1" as="geometry">
            <mxPoint x="1610" y="1220" as="targetPoint" />
          </mxGeometry>
        </mxCell>
        <mxCell id="t1rXLY3Hh5dRlG1rRBzR-339" value="tax = taxable income * 0.03" style="rounded=0;whiteSpace=wrap;html=1;" vertex="1" parent="1">
          <mxGeometry x="1390" y="1280" width="200" height="30" as="geometry" />
        </mxCell>
        <mxCell id="t1rXLY3Hh5dRlG1rRBzR-384" style="edgeStyle=orthogonalEdgeStyle;rounded=0;orthogonalLoop=1;jettySize=auto;html=1;exitX=1;exitY=0.5;exitDx=0;exitDy=0;" edge="1" parent="1" source="t1rXLY3Hh5dRlG1rRBzR-340">
          <mxGeometry relative="1" as="geometry">
            <mxPoint x="1610" y="1150" as="targetPoint" />
          </mxGeometry>
        </mxCell>
        <mxCell id="t1rXLY3Hh5dRlG1rRBzR-340" value="tax = taxable income * 0.06" style="rounded=0;whiteSpace=wrap;html=1;" vertex="1" parent="1">
          <mxGeometry x="1390" y="1211" width="200" height="30" as="geometry" />
        </mxCell>
        <mxCell id="t1rXLY3Hh5dRlG1rRBzR-383" style="edgeStyle=orthogonalEdgeStyle;rounded=0;orthogonalLoop=1;jettySize=auto;html=1;exitX=1;exitY=0.5;exitDx=0;exitDy=0;" edge="1" parent="1" source="t1rXLY3Hh5dRlG1rRBzR-341">
          <mxGeometry relative="1" as="geometry">
            <mxPoint x="1610" y="1080" as="targetPoint" />
          </mxGeometry>
        </mxCell>
        <mxCell id="t1rXLY3Hh5dRlG1rRBzR-341" value="tax = taxable income * 0.11" style="rounded=0;whiteSpace=wrap;html=1;" vertex="1" parent="1">
          <mxGeometry x="1390" y="1140" width="200" height="30" as="geometry" />
        </mxCell>
        <mxCell id="t1rXLY3Hh5dRlG1rRBzR-382" style="edgeStyle=orthogonalEdgeStyle;rounded=0;orthogonalLoop=1;jettySize=auto;html=1;exitX=1;exitY=0.5;exitDx=0;exitDy=0;" edge="1" parent="1" source="t1rXLY3Hh5dRlG1rRBzR-342">
          <mxGeometry relative="1" as="geometry">
            <mxPoint x="1610" y="1010" as="targetPoint" />
          </mxGeometry>
        </mxCell>
        <mxCell id="t1rXLY3Hh5dRlG1rRBzR-342" value="tax = taxable income * 0.19" style="rounded=0;whiteSpace=wrap;html=1;" vertex="1" parent="1">
          <mxGeometry x="1390" y="1070" width="200" height="30" as="geometry" />
        </mxCell>
        <mxCell id="t1rXLY3Hh5dRlG1rRBzR-381" style="edgeStyle=orthogonalEdgeStyle;rounded=0;orthogonalLoop=1;jettySize=auto;html=1;exitX=1;exitY=0.5;exitDx=0;exitDy=0;" edge="1" parent="1" source="t1rXLY3Hh5dRlG1rRBzR-343">
          <mxGeometry relative="1" as="geometry">
            <mxPoint x="1610" y="940" as="targetPoint" />
          </mxGeometry>
        </mxCell>
        <mxCell id="t1rXLY3Hh5dRlG1rRBzR-343" value="tax = taxable income * 0.25" style="rounded=0;whiteSpace=wrap;html=1;" vertex="1" parent="1">
          <mxGeometry x="1390" y="1000" width="200" height="30" as="geometry" />
        </mxCell>
        <mxCell id="t1rXLY3Hh5dRlG1rRBzR-380" style="edgeStyle=orthogonalEdgeStyle;rounded=0;orthogonalLoop=1;jettySize=auto;html=1;exitX=1;exitY=0.5;exitDx=0;exitDy=0;" edge="1" parent="1" source="t1rXLY3Hh5dRlG1rRBzR-344">
          <mxGeometry relative="1" as="geometry">
            <mxPoint x="1610" y="870" as="targetPoint" />
          </mxGeometry>
        </mxCell>
        <mxCell id="t1rXLY3Hh5dRlG1rRBzR-344" value="tax = taxable income * 0.26" style="rounded=0;whiteSpace=wrap;html=1;" vertex="1" parent="1">
          <mxGeometry x="1390" y="930" width="200" height="30" as="geometry" />
        </mxCell>
        <mxCell id="t1rXLY3Hh5dRlG1rRBzR-379" style="edgeStyle=orthogonalEdgeStyle;rounded=0;orthogonalLoop=1;jettySize=auto;html=1;exitX=1;exitY=0.5;exitDx=0;exitDy=0;entryX=1;entryY=0.5;entryDx=0;entryDy=0;" edge="1" parent="1" source="t1rXLY3Hh5dRlG1rRBzR-345" target="t1rXLY3Hh5dRlG1rRBzR-377">
          <mxGeometry relative="1" as="geometry">
            <Array as="points">
              <mxPoint x="1610" y="875" />
              <mxPoint x="1610" y="755" />
            </Array>
          </mxGeometry>
        </mxCell>
        <mxCell id="t1rXLY3Hh5dRlG1rRBzR-345" value="tax = taxable income * 0.28" style="rounded=0;whiteSpace=wrap;html=1;" vertex="1" parent="1">
          <mxGeometry x="1390" y="860" width="200" height="30" as="geometry" />
        </mxCell>
        <mxCell id="t1rXLY3Hh5dRlG1rRBzR-378" style="edgeStyle=orthogonalEdgeStyle;rounded=0;orthogonalLoop=1;jettySize=auto;html=1;exitX=0.5;exitY=0;exitDx=0;exitDy=0;entryX=0.5;entryY=1;entryDx=0;entryDy=0;" edge="1" parent="1" source="t1rXLY3Hh5dRlG1rRBzR-374" target="t1rXLY3Hh5dRlG1rRBzR-377">
          <mxGeometry relative="1" as="geometry" />
        </mxCell>
        <mxCell id="t1rXLY3Hh5dRlG1rRBzR-374" value="tax = taxable income * 0.30" style="rounded=0;whiteSpace=wrap;html=1;" vertex="1" parent="1">
          <mxGeometry x="1180" y="790" width="200" height="30" as="geometry" />
        </mxCell>
        <mxCell id="t1rXLY3Hh5dRlG1rRBzR-391" style="edgeStyle=orthogonalEdgeStyle;rounded=0;orthogonalLoop=1;jettySize=auto;html=1;exitX=0.5;exitY=0;exitDx=0;exitDy=0;entryX=0.5;entryY=1;entryDx=0;entryDy=0;" edge="1" parent="1" source="t1rXLY3Hh5dRlG1rRBzR-377" target="t1rXLY3Hh5dRlG1rRBzR-390">
          <mxGeometry relative="1" as="geometry" />
        </mxCell>
        <mxCell id="t1rXLY3Hh5dRlG1rRBzR-377" value="display &quot;your tax payable = &quot;, tax" style="shape=parallelogram;perimeter=parallelogramPerimeter;whiteSpace=wrap;html=1;fixedSize=1;" vertex="1" parent="1">
          <mxGeometry x="1170" y="740" width="220" height="30" as="geometry" />
        </mxCell>
        <mxCell id="t1rXLY3Hh5dRlG1rRBzR-388" style="edgeStyle=orthogonalEdgeStyle;rounded=0;orthogonalLoop=1;jettySize=auto;html=1;exitX=0;exitY=0.5;exitDx=0;exitDy=0;entryX=1.008;entryY=0.629;entryDx=0;entryDy=0;entryPerimeter=0;" edge="1" parent="1" source="t1rXLY3Hh5dRlG1rRBzR-374" target="t1rXLY3Hh5dRlG1rRBzR-94">
          <mxGeometry relative="1" as="geometry">
            <Array as="points">
              <mxPoint x="1150" y="805" />
              <mxPoint x="1150" y="591" />
            </Array>
          </mxGeometry>
        </mxCell>
        <mxCell id="t1rXLY3Hh5dRlG1rRBzR-390" value="display &quot;user_id, ic, income, final relief, tax" style="shape=parallelogram;perimeter=parallelogramPerimeter;whiteSpace=wrap;html=1;fixedSize=1;" vertex="1" parent="1">
          <mxGeometry x="1145" y="530" width="270" height="30" as="geometry" />
        </mxCell>
        <mxCell id="t1rXLY3Hh5dRlG1rRBzR-397" style="edgeStyle=orthogonalEdgeStyle;rounded=0;orthogonalLoop=1;jettySize=auto;html=1;exitX=1;exitY=0.5;exitDx=0;exitDy=0;entryX=0;entryY=0.5;entryDx=0;entryDy=0;entryPerimeter=0;" edge="1" parent="1" source="t1rXLY3Hh5dRlG1rRBzR-65" target="40">
          <mxGeometry relative="1" as="geometry" />
        </mxCell>
        <mxCell id="t1rXLY3Hh5dRlG1rRBzR-398" value="end" style="shape=mxgraph.flowchart.terminator;strokeWidth=2;gradientColor=none;gradientDirection=north;fontStyle=0;html=1;" vertex="1" parent="1">
          <mxGeometry x="800" y="900" width="120" height="30" as="geometry" />
        </mxCell>
        <mxCell id="t1rXLY3Hh5dRlG1rRBzR-399" style="edgeStyle=orthogonalEdgeStyle;rounded=0;orthogonalLoop=1;jettySize=auto;html=1;exitX=0.5;exitY=1;exitDx=0;exitDy=0;entryX=0.5;entryY=0;entryDx=0;entryDy=0;entryPerimeter=0;" edge="1" parent="1" source="t1rXLY3Hh5dRlG1rRBzR-145" target="t1rXLY3Hh5dRlG1rRBzR-398">
          <mxGeometry relative="1" as="geometry" />
        </mxCell>
        <mxCell id="t1rXLY3Hh5dRlG1rRBzR-400" value="end" style="shape=mxgraph.flowchart.terminator;strokeWidth=2;gradientColor=none;gradientDirection=north;fontStyle=0;html=1;" vertex="1" parent="1">
          <mxGeometry x="1220" y="460" width="120" height="30" as="geometry" />
        </mxCell>
        <mxCell id="t1rXLY3Hh5dRlG1rRBzR-401" style="edgeStyle=orthogonalEdgeStyle;rounded=0;orthogonalLoop=1;jettySize=auto;html=1;exitX=0.5;exitY=0;exitDx=0;exitDy=0;entryX=0.5;entryY=1;entryDx=0;entryDy=0;entryPerimeter=0;" edge="1" parent="1" source="t1rXLY3Hh5dRlG1rRBzR-390" target="t1rXLY3Hh5dRlG1rRBzR-400">
          <mxGeometry relative="1" as="geometry" />
        </mxCell>
        <mxCell id="t1rXLY3Hh5dRlG1rRBzR-410" style="edgeStyle=orthogonalEdgeStyle;rounded=0;orthogonalLoop=1;jettySize=auto;html=1;exitX=0.5;exitY=0;exitDx=0;exitDy=0;entryX=1;entryY=0.25;entryDx=0;entryDy=0;" edge="1" parent="1" source="t1rXLY3Hh5dRlG1rRBzR-404" target="t1rXLY3Hh5dRlG1rRBzR-288">
          <mxGeometry relative="1" as="geometry">
            <Array as="points">
              <mxPoint x="553" y="2088" />
            </Array>
          </mxGeometry>
        </mxCell>
        <mxCell id="t1rXLY3Hh5dRlG1rRBzR-404" value="display &quot;invalid number of children&quot;" style="shape=parallelogram;perimeter=parallelogramPerimeter;whiteSpace=wrap;html=1;fixedSize=1;" vertex="1" parent="1">
          <mxGeometry x="442.5" y="2140" width="220" height="30" as="geometry" />
        </mxCell>
        <mxCell id="t1rXLY3Hh5dRlG1rRBzR-407" style="edgeStyle=orthogonalEdgeStyle;rounded=0;orthogonalLoop=1;jettySize=auto;html=1;exitX=0.5;exitY=0;exitDx=0;exitDy=0;entryX=0;entryY=0.5;entryDx=0;entryDy=0;" edge="1" parent="1" source="t1rXLY3Hh5dRlG1rRBzR-405" target="t1rXLY3Hh5dRlG1rRBzR-262">
          <mxGeometry relative="1" as="geometry">
            <Array as="points">
              <mxPoint x="-130" y="1955" />
            </Array>
          </mxGeometry>
        </mxCell>
        <mxCell id="t1rXLY3Hh5dRlG1rRBzR-405" value="display &quot;invalid income&quot;" style="shape=parallelogram;perimeter=parallelogramPerimeter;whiteSpace=wrap;html=1;fixedSize=1;" vertex="1" parent="1">
          <mxGeometry x="-240" y="2010" width="220" height="30" as="geometry" />
        </mxCell>
      </root>
    </mxGraphModel>
  </diagram>
</mxfile>
